<svg xmlns="http://www.w3.org/2000/svg" xmlns:xlink="http://www.w3.org/1999/xlink" id="body_3" preserveAspectRatio="xMinYMin meet" viewBox="0 0 793 1121"><defs><clipPath id="1"><path id="" clip-rule="evenodd" transform="matrix(1 0 0 1 0 0)" d="M0 841L0 -0.8599854L0 -0.8599854L595.28 -0.8599854L595.28 -0.8599854L595.28 841L595.28 841L0 841z" /></clipPath><clipPath id="2"><path id="" clip-rule="evenodd" transform="matrix(1 0 0 1 0 0)" d="M0 -0.8599854L595 -0.8599854L595 -0.8599854L595 840.14L595 840.14L0 840.14z" /></clipPath><clipPath id="3"><path id="" clip-rule="evenodd" transform="matrix(1 0 0 1 0 0)" d="M0 -0.8599854L595 -0.8599854L595 -0.8599854L595 840.14L595 840.14L0 840.14z" /></clipPath><clipPath id="4"><path id="" clip-rule="evenodd" transform="matrix(1 0 0 1 0 0)" d="M0 -0.8599854L595 -0.8599854L595 -0.8599854L595 840.14L595 840.14L0 840.14z" /></clipPath><clipPath id="5"><path id="" clip-rule="evenodd" transform="matrix(1 0 0 1 0 0)" d="M0 -0.8599854L595 -0.8599854L595 -0.8599854L595 840.14L595 840.14L0 840.14z" /></clipPath><clipPath id="6"><path id="" clip-rule="evenodd" transform="matrix(1 0 0 1 0 0)" d="M0 -0.8599854L595 -0.8599854L595 -0.8599854L595 840.14L595 840.14L0 840.14z" /></clipPath><clipPath id="7"><path id="" clip-rule="evenodd" transform="matrix(1 0 0 1 0 0)" d="M0 -0.8599854L595 -0.8599854L595 -0.8599854L595 840.14L595 840.14L0 840.14z" /></clipPath><clipPath id="8"><path id="" clip-rule="evenodd" transform="matrix(1 0 0 1 0 0)" d="M0 -0.8599854L595 -0.8599854L595 -0.8599854L595 840.14L595 840.14L0 840.14z" /></clipPath><clipPath id="9"><path id="" clip-rule="evenodd" transform="matrix(1 0 0 1 0 0)" d="M0 -0.8599854L595 -0.8599854L595 -0.8599854L595 840.14L595 840.14L0 840.14z" /></clipPath><clipPath id="10"><path id="" clip-rule="evenodd" transform="matrix(1 0 0 1 0 0)" d="M0 -0.8599854L595 -0.8599854L595 -0.8599854L595 840.14L595 840.14L0 840.14z" /></clipPath><clipPath id="11"><path id="" clip-rule="evenodd" transform="matrix(1 0 0 1 0 0)" d="M0 -0.8599854L595 -0.8599854L595 -0.8599854L595 840.14L595 840.14L0 840.14z" /></clipPath><clipPath id="12"><path id="" clip-rule="evenodd" transform="matrix(1 0 0 1 0 0)" d="M0 -0.8599854L595 -0.8599854L595 -0.8599854L595 840.14L595 840.14L0 840.14z" /></clipPath><clipPath id="13"><path id="" clip-rule="evenodd" transform="matrix(1 0 0 1 0 0)" d="M0 -0.8599854L595 -0.8599854L595 -0.8599854L595 840.14L595 840.14L0 840.14z" /></clipPath><clipPath id="14"><path id="" clip-rule="evenodd" transform="matrix(1 0 0 1 0 0)" d="M0 -0.8599854L595 -0.8599854L595 -0.8599854L595 840.14L595 840.14L0 840.14z" /></clipPath><clipPath id="15"><path id="" clip-rule="evenodd" transform="matrix(1 0 0 1 0 0)" d="M0 -0.8599854L595 -0.8599854L595 -0.8599854L595 840.14L595 840.14L0 840.14z" /></clipPath><clipPath id="16"><path id="" clip-rule="evenodd" transform="matrix(1 0 0 1 0 0)" d="M0 -0.8599854L595 -0.8599854L595 -0.8599854L595 840.14L595 840.14L0 840.14z" /></clipPath><clipPath id="17"><path id="" clip-rule="evenodd" transform="matrix(1 0 0 1 0 0)" d="M0 -0.8599854L595 -0.8599854L595 -0.8599854L595 840.14L595 840.14L0 840.14z" /></clipPath><clipPath id="18"><path id="" clip-rule="evenodd" transform="matrix(1 0 0 1 0 0)" d="M0 -0.8599854L595 -0.8599854L595 -0.8599854L595 840.14L595 840.14L0 840.14z" /></clipPath><clipPath id="19"><path id="" clip-rule="evenodd" transform="matrix(1 0 0 1 0 0)" d="M0 -0.8599854L595 -0.8599854L595 -0.8599854L595 840.14L595 840.14L0 840.14z" /></clipPath><clipPath id="20"><path id="" clip-rule="evenodd" transform="matrix(1 0 0 1 0 0)" d="M0 -0.8599854L595 -0.8599854L595 -0.8599854L595 840.14L595 840.14L0 840.14z" /></clipPath><clipPath id="21"><path id="" clip-rule="evenodd" transform="matrix(1 0 0 1 0 0)" d="M0 -0.8599854L595 -0.8599854L595 -0.8599854L595 840.14L595 840.14L0 840.14z" /></clipPath><clipPath id="22"><path id="" clip-rule="evenodd" transform="matrix(1 0 0 1 0 0)" d="M0 -0.8599854L595 -0.8599854L595 -0.8599854L595 840.14L595 840.14L0 840.14z" /></clipPath><clipPath id="23"><path id="" clip-rule="evenodd" transform="matrix(1 0 0 1 0 0)" d="M0 -0.8599854L595 -0.8599854L595 -0.8599854L595 840.14L595 840.14L0 840.14z" /></clipPath><clipPath id="24"><path id="" clip-rule="evenodd" transform="matrix(1 0 0 1 0 0)" d="M0 -0.8599854L595 -0.8599854L595 -0.8599854L595 840.14L595 840.14L0 840.14z" /></clipPath><clipPath id="25"><path id="" clip-rule="evenodd" transform="matrix(1 0 0 1 0 0)" d="M0 -0.8599854L595 -0.8599854L595 -0.8599854L595 840.14L595 840.14L0 840.14z" /></clipPath><clipPath id="26"><path id="" clip-rule="evenodd" transform="matrix(1 0 0 1 0 0)" d="M0 -0.8599854L595 -0.8599854L595 -0.8599854L595 840.14L595 840.14L0 840.14z" /></clipPath><clipPath id="27"><path id="" clip-rule="evenodd" transform="matrix(1 0 0 1 0 0)" d="M0 -0.8599854L595 -0.8599854L595 -0.8599854L595 840.14L595 840.14L0 840.14z" /></clipPath><clipPath id="28"><path id="" clip-rule="evenodd" transform="matrix(1 0 0 1 0 0)" d="M0 -0.8599854L595 -0.8599854L595 -0.8599854L595 840.14L595 840.14L0 840.14z" /></clipPath><clipPath id="29"><path id="" clip-rule="evenodd" transform="matrix(1 0 0 1 0 0)" d="M0 -0.8599854L595 -0.8599854L595 -0.8599854L595 840.14L595 840.14L0 840.14z" /></clipPath><clipPath id="30"><path id="" clip-rule="evenodd" transform="matrix(1 0 0 1 0 0)" d="M0 -0.8599854L595 -0.8599854L595 -0.8599854L595 840.14L595 840.14L0 840.14z" /></clipPath><clipPath id="31"><path id="" clip-rule="evenodd" transform="matrix(1 0 0 1 0 0)" d="M0 -0.8599854L595 -0.8599854L595 -0.8599854L595 840.14L595 840.14L0 840.14z" /></clipPath><clipPath id="32"><path id="" clip-rule="evenodd" transform="matrix(1 0 0 1 0 0)" d="M0 -0.8599854L595 -0.8599854L595 -0.8599854L595 840.14L595 840.14L0 840.14z" /></clipPath><clipPath id="33"><path id="" clip-rule="evenodd" transform="matrix(1 0 0 1 0 0)" d="M0 -0.8599854L595 -0.8599854L595 -0.8599854L595 840.14L595 840.14L0 840.14z" /></clipPath><clipPath id="34"><path id="" clip-rule="evenodd" transform="matrix(1 0 0 1 0 0)" d="M0 -0.8599854L595 -0.8599854L595 -0.8599854L595 840.14L595 840.14L0 840.14z" /></clipPath><clipPath id="35"><path id="" clip-rule="evenodd" transform="matrix(1 0 0 1 0 0)" d="M0 -0.8599854L595 -0.8599854L595 -0.8599854L595 840.14L595 840.14L0 840.14z" /></clipPath><clipPath id="36"><path id="" clip-rule="evenodd" transform="matrix(1 0 0 1 0 0)" d="M0 -0.8599854L595 -0.8599854L595 -0.8599854L595 840.14L595 840.14L0 840.14z" /></clipPath><clipPath id="37"><path id="" clip-rule="evenodd" transform="matrix(1 0 0 1 0 0)" d="M0 -0.8599854L595 -0.8599854L595 -0.8599854L595 840.14L595 840.14L0 840.14z" /></clipPath><clipPath id="38"><path id="" clip-rule="evenodd" transform="matrix(1 0 0 1 0 0)" d="M0 -0.8599854L595 -0.8599854L595 -0.8599854L595 840.14L595 840.14L0 840.14z" /></clipPath><clipPath id="39"><path id="" clip-rule="evenodd" transform="matrix(1 0 0 1 0 0)" d="M0 -0.8599854L595 -0.8599854L595 -0.8599854L595 840.14L595 840.14L0 840.14z" /></clipPath><clipPath id="40"><path id="" clip-rule="evenodd" transform="matrix(1 0 0 1 0 0)" d="M0 -0.8599854L595 -0.8599854L595 -0.8599854L595 840.14L595 840.14L0 840.14z" /></clipPath><clipPath id="41"><path id="" clip-rule="evenodd" transform="matrix(1 0 0 1 0 0)" d="M0 -0.8599854L595 -0.8599854L595 -0.8599854L595 840.14L595 840.14L0 840.14z" /></clipPath><clipPath id="42"><path id="" clip-rule="evenodd" transform="matrix(1 0 0 1 0 0)" d="M0 -0.8599854L595 -0.8599854L595 -0.8599854L595 840.14L595 840.14L0 840.14z" /></clipPath><clipPath id="43"><path id="" clip-rule="evenodd" transform="matrix(1 0 0 1 0 0)" d="M0 -0.8599854L595 -0.8599854L595 -0.8599854L595 840.14L595 840.14L0 840.14z" /></clipPath><clipPath id="44"><path id="" clip-rule="evenodd" transform="matrix(1 0 0 1 0 0)" d="M0 -0.8599854L595 -0.8599854L595 -0.8599854L595 840.14L595 840.14L0 840.14z" /></clipPath><clipPath id="45"><path id="" clip-rule="evenodd" transform="matrix(1 0 0 1 0 0)" d="M0 -0.8599854L595 -0.8599854L595 -0.8599854L595 840.14L595 840.14L0 840.14z" /></clipPath><clipPath id="46"><path id="" clip-rule="evenodd" transform="matrix(1 0 0 1 0 0)" d="M0 -0.8599854L595 -0.8599854L595 -0.8599854L595 840.14L595 840.14L0 840.14z" /></clipPath><clipPath id="47"><path id="" clip-rule="evenodd" transform="matrix(1 0 0 1 0 0)" d="M0 -0.8599854L595 -0.8599854L595 -0.8599854L595 840.14L595 840.14L0 840.14z" /></clipPath><clipPath id="48"><path id="" clip-rule="evenodd" transform="matrix(1 0 0 1 0 0)" d="M0 -0.8599854L595 -0.8599854L595 -0.8599854L595 840.14L595 840.14L0 840.14z" /></clipPath><clipPath id="49"><path id="" clip-rule="evenodd" transform="matrix(1 0 0 1 0 0)" d="M0 -0.8599854L595 -0.8599854L595 -0.8599854L595 840.14L595 840.14L0 840.14z" /></clipPath><clipPath id="50"><path id="" clip-rule="evenodd" transform="matrix(1 0 0 1 0 0)" d="M0 -0.8599854L595 -0.8599854L595 -0.8599854L595 840.14L595 840.14L0 840.14z" /></clipPath><clipPath id="51"><path id="" clip-rule="evenodd" transform="matrix(1 0 0 1 0 0)" d="M0 -0.8599854L595 -0.8599854L595 -0.8599854L595 840.14L595 840.14L0 840.14z" /></clipPath><clipPath id="52"><path id="" clip-rule="evenodd" transform="matrix(1 0 0 1 0 0)" d="M0 -0.8599854L595 -0.8599854L595 -0.8599854L595 840.14L595 840.14L0 840.14z" /></clipPath><clipPath id="53"><path id="" clip-rule="evenodd" transform="matrix(1 0 0 1 0 0)" d="M0 -0.8599854L595 -0.8599854L595 -0.8599854L595 840.14L595 840.14L0 840.14z" /></clipPath><clipPath id="54"><path id="" clip-rule="evenodd" transform="matrix(1 0 0 1 0 0)" d="M0 -0.8599854L595 -0.8599854L595 -0.8599854L595 840.14L595 840.14L0 840.14z" /></clipPath><clipPath id="55"><path id="" clip-rule="evenodd" transform="matrix(1 0 0 1 0 0)" d="M0 -0.8599854L595 -0.8599854L595 -0.8599854L595 840.14L595 840.14L0 840.14z" /></clipPath><clipPath id="56"><path id="" clip-rule="evenodd" transform="matrix(1 0 0 1 0 0)" d="M0 -0.8599854L595 -0.8599854L595 -0.8599854L595 840.14L595 840.14L0 840.14z" /></clipPath><clipPath id="57"><path id="" clip-rule="evenodd" transform="matrix(1 0 0 1 0 0)" d="M72 285.14L114 285.14L114 285.14L114 302.14L114 302.14L72 302.14z" /></clipPath><clipPath id="58"><path id="" clip-rule="evenodd" transform="matrix(1 0 0 1 0 0)" d="M114 285.14L496 285.14L496 285.14L496 302.14L496 302.14L114 302.14z" /></clipPath><clipPath id="59"><path id="" clip-rule="evenodd" transform="matrix(1 0 0 1 0 0)" d="M114 285.14L496 285.14L496 285.14L496 302.14L496 302.14L114 302.14z" /></clipPath><clipPath id="60"><path id="" clip-rule="evenodd" transform="matrix(1 0 0 1 0 0)" d="M496 285.14L563 285.14L563 285.14L563 302.14L563 302.14L496 302.14z" /></clipPath><clipPath id="61"><path id="" clip-rule="evenodd" transform="matrix(1 0 0 1 0 0)" d="M72 302.14L114 302.14L114 302.14L114 334.14L114 334.14L72 334.14z" /></clipPath><clipPath id="62"><path id="" clip-rule="evenodd" transform="matrix(1 0 0 1 0 0)" d="M114 302.14L496 302.14L496 302.14L496 334.14L496 334.14L114 334.14z" /></clipPath><clipPath id="63"><path id="" clip-rule="evenodd" transform="matrix(1 0 0 1 0 0)" d="M114 302.14L496 302.14L496 302.14L496 334.14L496 334.14L114 334.14z" /></clipPath><clipPath id="64"><path id="" clip-rule="evenodd" transform="matrix(1 0 0 1 0 0)" d="M114 302.14L496 302.14L496 302.14L496 334.14L496 334.14L114 334.14z" /></clipPath><clipPath id="65"><path id="" clip-rule="evenodd" transform="matrix(1 0 0 1 0 0)" d="M114 302.14L496 302.14L496 302.14L496 334.14L496 334.14L114 334.14z" /></clipPath><clipPath id="66"><path id="" clip-rule="evenodd" transform="matrix(1 0 0 1 0 0)" d="M114 302.14L496 302.14L496 302.14L496 334.14L496 334.14L114 334.14z" /></clipPath><clipPath id="67"><path id="" clip-rule="evenodd" transform="matrix(1 0 0 1 0 0)" d="M114 302.14L496 302.14L496 302.14L496 334.14L496 334.14L114 334.14z" /></clipPath><clipPath id="68"><path id="" clip-rule="evenodd" transform="matrix(1 0 0 1 0 0)" d="M496 302.14L563 302.14L563 302.14L563 334.14L563 334.14L496 334.14z" /></clipPath><clipPath id="69"><path id="" clip-rule="evenodd" transform="matrix(1 0 0 1 0 0)" d="M496 302.14L563 302.14L563 302.14L563 334.14L563 334.14L496 334.14z" /></clipPath><clipPath id="70"><path id="" clip-rule="evenodd" transform="matrix(1 0 0 1 0 0)" d="M72 334.14L114 334.14L114 334.14L114 367.14L114 367.14L72 367.14z" /></clipPath><clipPath id="71"><path id="" clip-rule="evenodd" transform="matrix(1 0 0 1 0 0)" d="M114 334.14L496 334.14L496 334.14L496 367.14L496 367.14L114 367.14z" /></clipPath><clipPath id="72"><path id="" clip-rule="evenodd" transform="matrix(1 0 0 1 0 0)" d="M114 334.14L496 334.14L496 334.14L496 367.14L496 367.14L114 367.14z" /></clipPath><clipPath id="73"><path id="" clip-rule="evenodd" transform="matrix(1 0 0 1 0 0)" d="M114 334.14L496 334.14L496 334.14L496 367.14L496 367.14L114 367.14z" /></clipPath><clipPath id="74"><path id="" clip-rule="evenodd" transform="matrix(1 0 0 1 0 0)" d="M114 334.14L496 334.14L496 334.14L496 367.14L496 367.14L114 367.14z" /></clipPath><clipPath id="75"><path id="" clip-rule="evenodd" transform="matrix(1 0 0 1 0 0)" d="M114 334.14L496 334.14L496 334.14L496 367.14L496 367.14L114 367.14z" /></clipPath><clipPath id="76"><path id="" clip-rule="evenodd" transform="matrix(1 0 0 1 0 0)" d="M114 334.14L496 334.14L496 334.14L496 367.14L496 367.14L114 367.14z" /></clipPath><clipPath id="77"><path id="" clip-rule="evenodd" transform="matrix(1 0 0 1 0 0)" d="M496 334.14L563 334.14L563 334.14L563 367.14L563 367.14L496 367.14z" /></clipPath><clipPath id="78"><path id="" clip-rule="evenodd" transform="matrix(1 0 0 1 0 0)" d="M496 334.14L563 334.14L563 334.14L563 367.14L563 367.14L496 367.14z" /></clipPath><clipPath id="79"><path id="" clip-rule="evenodd" transform="matrix(1 0 0 1 0 0)" d="M72 367.14L114 367.14L114 367.14L114 385.14L114 385.14L72 385.14z" /></clipPath><clipPath id="80"><path id="" clip-rule="evenodd" transform="matrix(1 0 0 1 0 0)" d="M114 367.14L496 367.14L496 367.14L496 385.14L496 385.14L114 385.14z" /></clipPath><clipPath id="81"><path id="" clip-rule="evenodd" transform="matrix(1 0 0 1 0 0)" d="M114 367.14L496 367.14L496 367.14L496 385.14L496 385.14L114 385.14z" /></clipPath><clipPath id="82"><path id="" clip-rule="evenodd" transform="matrix(1 0 0 1 0 0)" d="M114 367.14L496 367.14L496 367.14L496 385.14L496 385.14L114 385.14z" /></clipPath><clipPath id="83"><path id="" clip-rule="evenodd" transform="matrix(1 0 0 1 0 0)" d="M496 367.14L563 367.14L563 367.14L563 385.14L563 385.14L496 385.14z" /></clipPath><clipPath id="84"><path id="" clip-rule="evenodd" transform="matrix(1 0 0 1 0 0)" d="M496 367.14L563 367.14L563 367.14L563 385.14L563 385.14L496 385.14z" /></clipPath><clipPath id="85"><path id="" clip-rule="evenodd" transform="matrix(1 0 0 1 0 0)" d="M72 385.14L114 385.14L114 385.14L114 418.14L114 418.14L72 418.14z" /></clipPath><clipPath id="86"><path id="" clip-rule="evenodd" transform="matrix(1 0 0 1 0 0)" d="M114 385.14L496 385.14L496 385.14L496 418.14L496 418.14L114 418.14z" /></clipPath><clipPath id="87"><path id="" clip-rule="evenodd" transform="matrix(1 0 0 1 0 0)" d="M114 385.14L496 385.14L496 385.14L496 418.14L496 418.14L114 418.14z" /></clipPath><clipPath id="88"><path id="" clip-rule="evenodd" transform="matrix(1 0 0 1 0 0)" d="M114 385.14L496 385.14L496 385.14L496 418.14L496 418.14L114 418.14z" /></clipPath><clipPath id="89"><path id="" clip-rule="evenodd" transform="matrix(1 0 0 1 0 0)" d="M114 385.14L496 385.14L496 385.14L496 418.14L496 418.14L114 418.14z" /></clipPath><clipPath id="90"><path id="" clip-rule="evenodd" transform="matrix(1 0 0 1 0 0)" d="M114 385.14L496 385.14L496 385.14L496 418.14L496 418.14L114 418.14z" /></clipPath><clipPath id="91"><path id="" clip-rule="evenodd" transform="matrix(1 0 0 1 0 0)" d="M496 385.14L563 385.14L563 385.14L563 418.14L563 418.14L496 418.14z" /></clipPath><clipPath id="92"><path id="" clip-rule="evenodd" transform="matrix(1 0 0 1 0 0)" d="M496 385.14L563 385.14L563 385.14L563 418.14L563 418.14L496 418.14z" /></clipPath><clipPath id="93"><path id="" clip-rule="evenodd" transform="matrix(1 0 0 1 0 0)" d="M72 418.14L114 418.14L114 418.14L114 451.14L114 451.14L72 451.14z" /></clipPath><clipPath id="94"><path id="" clip-rule="evenodd" transform="matrix(1 0 0 1 0 0)" d="M114 418.14L496 418.14L496 418.14L496 451.14L496 451.14L114 451.14z" /></clipPath><clipPath id="95"><path id="" clip-rule="evenodd" transform="matrix(1 0 0 1 0 0)" d="M114 418.14L496 418.14L496 418.14L496 451.14L496 451.14L114 451.14z" /></clipPath><clipPath id="96"><path id="" clip-rule="evenodd" transform="matrix(1 0 0 1 0 0)" d="M114 418.14L496 418.14L496 418.14L496 451.14L496 451.14L114 451.14z" /></clipPath><clipPath id="97"><path id="" clip-rule="evenodd" transform="matrix(1 0 0 1 0 0)" d="M114 418.14L496 418.14L496 418.14L496 451.14L496 451.14L114 451.14z" /></clipPath><clipPath id="98"><path id="" clip-rule="evenodd" transform="matrix(1 0 0 1 0 0)" d="M114 418.14L496 418.14L496 418.14L496 451.14L496 451.14L114 451.14z" /></clipPath><clipPath id="99"><path id="" clip-rule="evenodd" transform="matrix(1 0 0 1 0 0)" d="M496 418.14L563 418.14L563 418.14L563 451.14L563 451.14L496 451.14z" /></clipPath><clipPath id="100"><path id="" clip-rule="evenodd" transform="matrix(1 0 0 1 0 0)" d="M496 418.14L563 418.14L563 418.14L563 451.14L563 451.14L496 451.14z" /></clipPath><clipPath id="101"><path id="" clip-rule="evenodd" transform="matrix(1 0 0 1 0 0)" d="M0 -0.8599854L595 -0.8599854L595 -0.8599854L595 840.14L595 840.14L0 840.14z" /></clipPath><clipPath id="102"><path id="" clip-rule="evenodd" transform="matrix(1 0 0 1 0 0)" d="M0 -0.8599854L595 -0.8599854L595 -0.8599854L595 840.14L595 840.14L0 840.14z" /></clipPath><clipPath id="103"><path id="" clip-rule="evenodd" transform="matrix(1 0 0 1 0 0)" d="M0 -0.8599854L595 -0.8599854L595 -0.8599854L595 840.14L595 840.14L0 840.14z" /></clipPath><clipPath id="104"><path id="" clip-rule="evenodd" transform="matrix(1 0 0 1 0 0)" d="M0 -0.8599854L595 -0.8599854L595 -0.8599854L595 840.14L595 840.14L0 840.14z" /></clipPath><clipPath id="105"><path id="" clip-rule="evenodd" transform="matrix(1 0 0 1 0 0)" d="M0 -0.8599854L595 -0.8599854L595 -0.8599854L595 840.14L595 840.14L0 840.14z" /></clipPath><clipPath id="106"><path id="" clip-rule="evenodd" transform="matrix(1 0 0 1 0 0)" d="M0 -0.8599854L595 -0.8599854L595 -0.8599854L595 840.14L595 840.14L0 840.14z" /></clipPath><clipPath id="107"><path id="" clip-rule="evenodd" transform="matrix(1 0 0 1 0 0)" d="M0 -0.8599854L595 -0.8599854L595 -0.8599854L595 840.14L595 840.14L0 840.14z" /></clipPath><clipPath id="108"><path id="" clip-rule="evenodd" transform="matrix(1 0 0 1 0 0)" d="M0 -0.8599854L595 -0.8599854L595 -0.8599854L595 840.14L595 840.14L0 840.14z" /></clipPath><clipPath id="109"><path id="" clip-rule="evenodd" transform="matrix(1 0 0 1 0 0)" d="M0 -0.8599854L595 -0.8599854L595 -0.8599854L595 840.14L595 840.14L0 840.14z" /></clipPath><clipPath id="110"><path id="" clip-rule="evenodd" transform="matrix(1 0 0 1 0 0)" d="M0 -0.8599854L595 -0.8599854L595 -0.8599854L595 840.14L595 840.14L0 840.14z" /></clipPath><clipPath id="111"><path id="" clip-rule="evenodd" transform="matrix(1 0 0 1 0 0)" d="M0 -0.8599854L595 -0.8599854L595 -0.8599854L595 840.14L595 840.14L0 840.14z" /></clipPath><clipPath id="112"><path id="" clip-rule="evenodd" transform="matrix(1 0 0 1 0 0)" d="M0 -0.8599854L595 -0.8599854L595 -0.8599854L595 840.14L595 840.14L0 840.14z" /></clipPath><clipPath id="113"><path id="" clip-rule="evenodd" transform="matrix(1 0 0 1 0 0)" d="M0 -0.8599854L595 -0.8599854L595 -0.8599854L595 840.14L595 840.14L0 840.14z" /></clipPath><clipPath id="114"><path id="" clip-rule="evenodd" transform="matrix(1 0 0 1 0 0)" d="M0 -0.8599854L595 -0.8599854L595 -0.8599854L595 840.14L595 840.14L0 840.14z" /></clipPath><clipPath id="115"><path id="" clip-rule="evenodd" transform="matrix(1 0 0 1 0 0)" d="M0 -0.8599854L595 -0.8599854L595 -0.8599854L595 840.14L595 840.14L0 840.14z" /></clipPath></defs><g transform="matrix(1.333333 0 0 1.333333 0 0)"><g clip-path="url(#1)"><g clip-path="url(#2)"></g><g clip-path="url(#3)"></g><g clip-path="url(#4)"></g><g clip-path="url(#5)"></g><g clip-path="url(#6)"></g><g clip-path="url(#7)"></g><g clip-path="url(#8)"></g><g clip-path="url(#9)"></g><g clip-path="url(#10)"></g><g clip-path="url(#11)"></g><g clip-path="url(#12)"></g><g clip-path="url(#13)"></g><g clip-path="url(#14)"></g><g clip-path="url(#15)"></g><g clip-path="url(#16)"></g><g clip-path="url(#17)"></g><g clip-path="url(#18)"></g><g clip-path="url(#19)"></g><g clip-path="url(#20)"></g><g clip-path="url(#21)"></g><g clip-path="url(#22)"></g><g clip-path="url(#23)"></g><g clip-path="url(#24)"></g><g clip-path="url(#25)"></g><g clip-path="url(#26)"></g><g clip-path="url(#27)"></g><g clip-path="url(#28)"></g><g clip-path="url(#29)"></g><g clip-path="url(#30)"></g><g clip-path="url(#31)"></g><g clip-path="url(#32)"></g><g clip-path="url(#33)"></g><g clip-path="url(#34)"></g><g clip-path="url(#35)"></g><g clip-path="url(#36)"></g><g clip-path="url(#37)"></g><g clip-path="url(#38)"></g><g clip-path="url(#39)"></g><g clip-path="url(#40)"></g><g clip-path="url(#41)"></g><g clip-path="url(#42)"></g><g clip-path="url(#43)"></g><g clip-path="url(#44)"></g><g clip-path="url(#45)"></g><g clip-path="url(#46)"></g><g clip-path="url(#47)"></g><g clip-path="url(#48)"></g><g clip-path="url(#49)"></g><g clip-path="url(#50)"></g><g clip-path="url(#51)"></g><g clip-path="url(#52)"></g><g clip-path="url(#53)"></g><g clip-path="url(#54)"></g><g clip-path="url(#55)"></g><g clip-path="url(#56)"></g><g clip-path="url(#57)"></g><g clip-path="url(#58)"></g><g clip-path="url(#59)"></g><g clip-path="url(#60)"></g><g clip-path="url(#61)"></g><g clip-path="url(#62)"></g><g clip-path="url(#63)"></g><g clip-path="url(#64)"></g><g clip-path="url(#65)"></g><g clip-path="url(#66)"></g><g clip-path="url(#67)"></g><g clip-path="url(#68)"></g><g clip-path="url(#69)"></g><g clip-path="url(#70)"></g><g clip-path="url(#71)"></g><g clip-path="url(#72)"></g><g clip-path="url(#73)"></g><g clip-path="url(#74)"></g><g clip-path="url(#75)"></g><g clip-path="url(#76)"></g><g clip-path="url(#77)"></g><g clip-path="url(#78)"></g><g clip-path="url(#79)"></g><g clip-path="url(#80)"></g><g clip-path="url(#81)"></g><g clip-path="url(#82)"></g><g clip-path="url(#83)"></g><g clip-path="url(#84)"></g><g clip-path="url(#85)"></g><g clip-path="url(#86)"></g><g clip-path="url(#87)"></g><g clip-path="url(#88)"></g><g clip-path="url(#89)"></g><g clip-path="url(#90)"></g><g clip-path="url(#91)"></g><g clip-path="url(#92)"></g><g clip-path="url(#93)"></g><g clip-path="url(#94)"></g><g clip-path="url(#95)"></g><g clip-path="url(#96)"></g><g clip-path="url(#97)"></g><g clip-path="url(#98)"></g><g clip-path="url(#99)"></g><g clip-path="url(#100)"></g><g clip-path="url(#101)"><path id="794" transform="matrix(1 0 0 -1 0 841)" d="M72.5 555.86L72.5 389.86" stroke="#000000" stroke-width="1" fill="none" /></g><g clip-path="url(#102)"><path id="795" transform="matrix(1 0 0 -1 0 841)" d="M114.5 555.86L114.5 389.86" stroke="#000000" stroke-width="1" fill="none" /></g><g clip-path="url(#103)"><path id="796" transform="matrix(1 0 0 -1 0 841)" d="M496.5 555.86L496.5 389.86" stroke="#000000" stroke-width="1" fill="none" /></g><g clip-path="url(#104)"><path id="797" transform="matrix(1 0 0 -1 0 841)" d="M563.5 555.86L563.5 389.86" stroke="#000000" stroke-width="1" fill="none" /></g><g clip-path="url(#105)"><path id="798" transform="matrix(1 0 0 -1 0 841)" d="M72 555.36L563 555.36" stroke="#000000" stroke-width="1" fill="none" /></g><g clip-path="url(#106)"><path id="799" transform="matrix(1 0 0 -1 0 841)" d="M72 538.36L563 538.36" stroke="#000000" stroke-width="1" fill="none" /></g><g clip-path="url(#107)"><path id="800" transform="matrix(1 0 0 -1 0 841)" d="M72 506.36L563 506.36" stroke="#000000" stroke-width="1" fill="none" /></g><g clip-path="url(#108)"><path id="801" transform="matrix(1 0 0 -1 0 841)" d="M72 473.36L563 473.36" stroke="#000000" stroke-width="1" fill="none" /></g><g clip-path="url(#109)"><path id="802" transform="matrix(1 0 0 -1 0 841)" d="M72 455.36L563 455.36" stroke="#000000" stroke-width="1" fill="none" /></g><g clip-path="url(#110)"><path id="803" transform="matrix(1 0 0 -1 0 841)" d="M72 422.36L563 422.36" stroke="#000000" stroke-width="1" fill="none" /></g><g clip-path="url(#111)"><path id="804" transform="matrix(1 0 0 -1 0 841)" d="M72 389.36L563 389.36" stroke="#000000" stroke-width="1" fill="none" /></g><g clip-path="url(#112)"><path id="805" transform="matrix(1 0 0 -1 0 841)" d="M563.5 555.86L563.5 389.86" stroke="#000000" stroke-width="1" fill="none" /></g><g clip-path="url(#113)"><path id="806" transform="matrix(1 0 0 -1 0 841)" d="M72.5 555.86L72.5 389.86" stroke="#000000" stroke-width="1" fill="none" /></g><g clip-path="url(#114)"><path id="807" transform="matrix(1 0 0 -1 0 841)" d="M72 389.36L563 389.36" stroke="#000000" stroke-width="1" fill="none" /></g><g clip-path="url(#115)"><path id="808" transform="matrix(1 0 0 -1 0 841)" d="M72 555.36L563 555.36" stroke="#000000" stroke-width="1" fill="none" /></g></g></g></svg>