<svg xmlns="http://www.w3.org/2000/svg" xmlns:xlink="http://www.w3.org/1999/xlink" id="body_2" preserveAspectRatio="xMinYMin meet" viewBox="0 0 793 1121"><defs><clipPath id="1"><path id="" clip-rule="evenodd" transform="matrix(1 0 0 1 0 0)" d="M0 841L0 -0.8599854L0 -0.8599854L595.28 -0.8599854L595.28 -0.8599854L595.28 841L595.28 841L0 841z" /></clipPath><clipPath id="2"><path id="" clip-rule="evenodd" transform="matrix(1 0 0 1 0 0)" d="M0 -0.8599854L595 -0.8599854L595 -0.8599854L595 840.14L595 840.14L0 840.14z" /></clipPath><clipPath id="3"><path id="" clip-rule="evenodd" transform="matrix(1 0 0 1 0 0)" d="M0 -0.8599854L595 -0.8599854L595 -0.8599854L595 840.14L595 840.14L0 840.14z" /></clipPath><clipPath id="4"><path id="" clip-rule="evenodd" transform="matrix(1 0 0 1 0 0)" d="M0 -0.8599854L595 -0.8599854L595 -0.8599854L595 840.14L595 840.14L0 840.14z" /></clipPath><clipPath id="5"><path id="" clip-rule="evenodd" transform="matrix(1 0 0 1 0 0)" d="M0 -0.8599854L595 -0.8599854L595 -0.8599854L595 840.14L595 840.14L0 840.14z" /></clipPath><clipPath id="6"><path id="" clip-rule="evenodd" transform="matrix(1 0 0 1 0 0)" d="M0 -0.8599854L595 -0.8599854L595 -0.8599854L595 840.14L595 840.14L0 840.14z" /></clipPath><clipPath id="7"><path id="" clip-rule="evenodd" transform="matrix(1 0 0 1 0 0)" d="M0 -0.8599854L595 -0.8599854L595 -0.8599854L595 840.14L595 840.14L0 840.14z" /></clipPath><clipPath id="8"><path id="" clip-rule="evenodd" transform="matrix(1 0 0 1 0 0)" d="M0 -0.8599854L595 -0.8599854L595 -0.8599854L595 840.14L595 840.14L0 840.14z" /></clipPath><clipPath id="9"><path id="" clip-rule="evenodd" transform="matrix(1 0 0 1 0 0)" d="M0 -0.8599854L595 -0.8599854L595 -0.8599854L595 840.14L595 840.14L0 840.14z" /></clipPath><clipPath id="10"><path id="" clip-rule="evenodd" transform="matrix(1 0 0 1 0 0)" d="M0 -0.8599854L595 -0.8599854L595 -0.8599854L595 840.14L595 840.14L0 840.14z" /></clipPath><clipPath id="11"><path id="" clip-rule="evenodd" transform="matrix(1 0 0 1 0 0)" d="M0 -0.8599854L595 -0.8599854L595 -0.8599854L595 840.14L595 840.14L0 840.14z" /></clipPath><clipPath id="12"><path id="" clip-rule="evenodd" transform="matrix(1 0 0 1 0 0)" d="M0 -0.8599854L595 -0.8599854L595 -0.8599854L595 840.14L595 840.14L0 840.14z" /></clipPath><clipPath id="13"><path id="" clip-rule="evenodd" transform="matrix(1 0 0 1 0 0)" d="M0 -0.8599854L595 -0.8599854L595 -0.8599854L595 840.14L595 840.14L0 840.14z" /></clipPath><clipPath id="14"><path id="" clip-rule="evenodd" transform="matrix(1 0 0 1 0 0)" d="M0 -0.8599854L595 -0.8599854L595 -0.8599854L595 840.14L595 840.14L0 840.14z" /></clipPath><clipPath id="15"><path id="" clip-rule="evenodd" transform="matrix(1 0 0 1 0 0)" d="M0 -0.8599854L595 -0.8599854L595 -0.8599854L595 840.14L595 840.14L0 840.14z" /></clipPath><clipPath id="16"><path id="" clip-rule="evenodd" transform="matrix(1 0 0 1 0 0)" d="M0 -0.8599854L595 -0.8599854L595 -0.8599854L595 840.14L595 840.14L0 840.14z" /></clipPath><clipPath id="17"><path id="" clip-rule="evenodd" transform="matrix(1 0 0 1 0 0)" d="M0 -0.8599854L595 -0.8599854L595 -0.8599854L595 840.14L595 840.14L0 840.14z" /></clipPath><clipPath id="18"><path id="" clip-rule="evenodd" transform="matrix(1 0 0 1 0 0)" d="M0 -0.8599854L595 -0.8599854L595 -0.8599854L595 840.14L595 840.14L0 840.14z" /></clipPath><clipPath id="19"><path id="" clip-rule="evenodd" transform="matrix(1 0 0 1 0 0)" d="M0 -0.8599854L595 -0.8599854L595 -0.8599854L595 840.14L595 840.14L0 840.14z" /></clipPath><clipPath id="20"><path id="" clip-rule="evenodd" transform="matrix(1 0 0 1 0 0)" d="M0 -0.8599854L595 -0.8599854L595 -0.8599854L595 840.14L595 840.14L0 840.14z" /></clipPath><clipPath id="21"><path id="" clip-rule="evenodd" transform="matrix(1 0 0 1 0 0)" d="M0 -0.8599854L595 -0.8599854L595 -0.8599854L595 840.14L595 840.14L0 840.14z" /></clipPath><clipPath id="22"><path id="" clip-rule="evenodd" transform="matrix(1 0 0 1 0 0)" d="M0 -0.8599854L595 -0.8599854L595 -0.8599854L595 840.14L595 840.14L0 840.14z" /></clipPath><clipPath id="23"><path id="" clip-rule="evenodd" transform="matrix(1 0 0 1 0 0)" d="M0 -0.8599854L595 -0.8599854L595 -0.8599854L595 840.14L595 840.14L0 840.14z" /></clipPath><clipPath id="24"><path id="" clip-rule="evenodd" transform="matrix(1 0 0 1 0 0)" d="M0 -0.8599854L595 -0.8599854L595 -0.8599854L595 840.14L595 840.14L0 840.14z" /></clipPath><clipPath id="25"><path id="" clip-rule="evenodd" transform="matrix(1 0 0 1 0 0)" d="M0 -0.8599854L595 -0.8599854L595 -0.8599854L595 840.14L595 840.14L0 840.14z" /></clipPath><clipPath id="26"><path id="" clip-rule="evenodd" transform="matrix(1 0 0 1 0 0)" d="M0 -0.8599854L595 -0.8599854L595 -0.8599854L595 840.14L595 840.14L0 840.14z" /></clipPath><clipPath id="27"><path id="" clip-rule="evenodd" transform="matrix(1 0 0 1 0 0)" d="M0 -0.8599854L595 -0.8599854L595 -0.8599854L595 840.14L595 840.14L0 840.14z" /></clipPath><clipPath id="28"><path id="" clip-rule="evenodd" transform="matrix(1 0 0 1 0 0)" d="M0 -0.8599854L595 -0.8599854L595 -0.8599854L595 840.14L595 840.14L0 840.14z" /></clipPath><clipPath id="29"><path id="" clip-rule="evenodd" transform="matrix(1 0 0 1 0 0)" d="M0 -0.8599854L595 -0.8599854L595 -0.8599854L595 840.14L595 840.14L0 840.14z" /></clipPath><clipPath id="30"><path id="" clip-rule="evenodd" transform="matrix(1 0 0 1 0 0)" d="M0 -0.8599854L595 -0.8599854L595 -0.8599854L595 840.14L595 840.14L0 840.14z" /></clipPath><clipPath id="31"><path id="" clip-rule="evenodd" transform="matrix(1 0 0 1 0 0)" d="M0 -0.8599854L595 -0.8599854L595 -0.8599854L595 840.14L595 840.14L0 840.14z" /></clipPath><clipPath id="32"><path id="" clip-rule="evenodd" transform="matrix(1 0 0 1 0 0)" d="M0 -0.8599854L595 -0.8599854L595 -0.8599854L595 840.14L595 840.14L0 840.14z" /></clipPath><clipPath id="33"><path id="" clip-rule="evenodd" transform="matrix(1 0 0 1 0 0)" d="M0 -0.8599854L595 -0.8599854L595 -0.8599854L595 840.14L595 840.14L0 840.14z" /></clipPath><clipPath id="34"><path id="" clip-rule="evenodd" transform="matrix(1 0 0 1 0 0)" d="M0 -0.8599854L595 -0.8599854L595 -0.8599854L595 840.14L595 840.14L0 840.14z" /></clipPath><clipPath id="35"><path id="" clip-rule="evenodd" transform="matrix(1 0 0 1 0 0)" d="M0 -0.8599854L595 -0.8599854L595 -0.8599854L595 840.14L595 840.14L0 840.14z" /></clipPath><clipPath id="36"><path id="" clip-rule="evenodd" transform="matrix(1 0 0 1 0 0)" d="M0 -0.8599854L595 -0.8599854L595 -0.8599854L595 840.14L595 840.14L0 840.14z" /></clipPath><clipPath id="37"><path id="" clip-rule="evenodd" transform="matrix(1 0 0 1 0 0)" d="M0 -0.8599854L595 -0.8599854L595 -0.8599854L595 840.14L595 840.14L0 840.14z" /></clipPath><clipPath id="38"><path id="" clip-rule="evenodd" transform="matrix(1 0 0 1 0 0)" d="M0 -0.8599854L595 -0.8599854L595 -0.8599854L595 840.14L595 840.14L0 840.14z" /></clipPath><clipPath id="39"><path id="" clip-rule="evenodd" transform="matrix(1 0 0 1 0 0)" d="M0 -0.8599854L595 -0.8599854L595 -0.8599854L595 840.14L595 840.14L0 840.14z" /></clipPath><clipPath id="40"><path id="" clip-rule="evenodd" transform="matrix(1 0 0 1 0 0)" d="M0 -0.8599854L595 -0.8599854L595 -0.8599854L595 840.14L595 840.14L0 840.14z" /></clipPath><clipPath id="41"><path id="" clip-rule="evenodd" transform="matrix(1 0 0 1 0 0)" d="M0 -0.8599854L595 -0.8599854L595 -0.8599854L595 840.14L595 840.14L0 840.14z" /></clipPath><clipPath id="42"><path id="" clip-rule="evenodd" transform="matrix(1 0 0 1 0 0)" d="M0 -0.8599854L595 -0.8599854L595 -0.8599854L595 840.14L595 840.14L0 840.14z" /></clipPath><clipPath id="43"><path id="" clip-rule="evenodd" transform="matrix(1 0 0 1 0 0)" d="M0 -0.8599854L595 -0.8599854L595 -0.8599854L595 840.14L595 840.14L0 840.14z" /></clipPath><clipPath id="44"><path id="" clip-rule="evenodd" transform="matrix(1 0 0 1 0 0)" d="M0 -0.8599854L595 -0.8599854L595 -0.8599854L595 840.14L595 840.14L0 840.14z" /></clipPath><clipPath id="45"><path id="" clip-rule="evenodd" transform="matrix(1 0 0 1 0 0)" d="M0 -0.8599854L595 -0.8599854L595 -0.8599854L595 840.14L595 840.14L0 840.14z" /></clipPath><clipPath id="46"><path id="" clip-rule="evenodd" transform="matrix(1 0 0 1 0 0)" d="M0 -0.8599854L595 -0.8599854L595 -0.8599854L595 840.14L595 840.14L0 840.14z" /></clipPath><clipPath id="47"><path id="" clip-rule="evenodd" transform="matrix(1 0 0 1 0 0)" d="M0 -0.8599854L595 -0.8599854L595 -0.8599854L595 840.14L595 840.14L0 840.14z" /></clipPath><clipPath id="48"><path id="" clip-rule="evenodd" transform="matrix(1 0 0 1 0 0)" d="M0 -0.8599854L595 -0.8599854L595 -0.8599854L595 840.14L595 840.14L0 840.14z" /></clipPath><clipPath id="49"><path id="" clip-rule="evenodd" transform="matrix(1 0 0 1 0 0)" d="M0 -0.8599854L595 -0.8599854L595 -0.8599854L595 840.14L595 840.14L0 840.14z" /></clipPath><clipPath id="50"><path id="" clip-rule="evenodd" transform="matrix(1 0 0 1 0 0)" d="M0 -0.8599854L595 -0.8599854L595 -0.8599854L595 840.14L595 840.14L0 840.14z" /></clipPath><clipPath id="51"><path id="" clip-rule="evenodd" transform="matrix(1 0 0 1 0 0)" d="M0 -0.8599854L595 -0.8599854L595 -0.8599854L595 840.14L595 840.14L0 840.14z" /></clipPath><clipPath id="52"><path id="" clip-rule="evenodd" transform="matrix(1 0 0 1 0 0)" d="M0 -0.8599854L595 -0.8599854L595 -0.8599854L595 840.14L595 840.14L0 840.14z" /></clipPath><clipPath id="53"><path id="" clip-rule="evenodd" transform="matrix(1 0 0 1 0 0)" d="M0 -0.8599854L595 -0.8599854L595 -0.8599854L595 840.14L595 840.14L0 840.14z" /></clipPath><clipPath id="54"><path id="" clip-rule="evenodd" transform="matrix(1 0 0 1 0 0)" d="M0 -0.8599854L595 -0.8599854L595 -0.8599854L595 840.14L595 840.14L0 840.14z" /></clipPath><clipPath id="55"><path id="" clip-rule="evenodd" transform="matrix(1 0 0 1 0 0)" d="M0 -0.8599854L595 -0.8599854L595 -0.8599854L595 840.14L595 840.14L0 840.14z" /></clipPath><clipPath id="56"><path id="" clip-rule="evenodd" transform="matrix(1 0 0 1 0 0)" d="M0 -0.8599854L595 -0.8599854L595 -0.8599854L595 840.14L595 840.14L0 840.14z" /></clipPath><clipPath id="57"><path id="" clip-rule="evenodd" transform="matrix(1 0 0 1 0 0)" d="M0 -0.8599854L595 -0.8599854L595 -0.8599854L595 840.14L595 840.14L0 840.14z" /></clipPath><clipPath id="58"><path id="" clip-rule="evenodd" transform="matrix(1 0 0 1 0 0)" d="M0 -0.8599854L595 -0.8599854L595 -0.8599854L595 840.14L595 840.14L0 840.14z" /></clipPath><clipPath id="59"><path id="" clip-rule="evenodd" transform="matrix(1 0 0 1 0 0)" d="M44 542.14L112 542.14L112 542.14L112 561.14L112 561.14L44 561.14z" /></clipPath><clipPath id="60"><path id="" clip-rule="evenodd" transform="matrix(1 0 0 1 0 0)" d="M44 542.14L112 542.14L112 542.14L112 561.14L112 561.14L44 561.14z" /></clipPath><clipPath id="61"><path id="" clip-rule="evenodd" transform="matrix(1 0 0 1 0 0)" d="M112 542.14L210 542.14L210 542.14L210 561.14L210 561.14L112 561.14z" /></clipPath><clipPath id="62"><path id="" clip-rule="evenodd" transform="matrix(1 0 0 1 0 0)" d="M112 542.14L210 542.14L210 542.14L210 561.14L210 561.14L112 561.14z" /></clipPath><clipPath id="63"><path id="" clip-rule="evenodd" transform="matrix(1 0 0 1 0 0)" d="M112 542.14L210 542.14L210 542.14L210 561.14L210 561.14L112 561.14z" /></clipPath><clipPath id="64"><path id="" clip-rule="evenodd" transform="matrix(1 0 0 1 0 0)" d="M210 542.14L303 542.14L303 542.14L303 561.14L303 561.14L210 561.14z" /></clipPath><clipPath id="65"><path id="" clip-rule="evenodd" transform="matrix(1 0 0 1 0 0)" d="M210 542.14L303 542.14L303 542.14L303 561.14L303 561.14L210 561.14z" /></clipPath><clipPath id="66"><path id="" clip-rule="evenodd" transform="matrix(1 0 0 1 0 0)" d="M210 542.14L303 542.14L303 542.14L303 561.14L303 561.14L210 561.14z" /></clipPath><clipPath id="67"><path id="" clip-rule="evenodd" transform="matrix(1 0 0 1 0 0)" d="M303 542.14L419 542.14L419 542.14L419 561.14L419 561.14L303 561.14z" /></clipPath><clipPath id="68"><path id="" clip-rule="evenodd" transform="matrix(1 0 0 1 0 0)" d="M303 542.14L419 542.14L419 542.14L419 561.14L419 561.14L303 561.14z" /></clipPath><clipPath id="69"><path id="" clip-rule="evenodd" transform="matrix(1 0 0 1 0 0)" d="M303 542.14L419 542.14L419 542.14L419 561.14L419 561.14L303 561.14z" /></clipPath><clipPath id="70"><path id="" clip-rule="evenodd" transform="matrix(1 0 0 1 0 0)" d="M419 542.14L543 542.14L543 542.14L543 561.14L543 561.14L419 561.14z" /></clipPath><clipPath id="71"><path id="" clip-rule="evenodd" transform="matrix(1 0 0 1 0 0)" d="M419 542.14L543 542.14L543 542.14L543 561.14L543 561.14L419 561.14z" /></clipPath><clipPath id="72"><path id="" clip-rule="evenodd" transform="matrix(1 0 0 1 0 0)" d="M419 542.14L543 542.14L543 542.14L543 561.14L543 561.14L419 561.14z" /></clipPath><clipPath id="73"><path id="" clip-rule="evenodd" transform="matrix(1 0 0 1 0 0)" d="M44 561.14L81 561.14L81 561.14L81 600.14L81 600.14L44 600.14z" /></clipPath><clipPath id="74"><path id="" clip-rule="evenodd" transform="matrix(1 0 0 1 0 0)" d="M44 561.14L81 561.14L81 561.14L81 600.14L81 600.14L44 600.14z" /></clipPath><clipPath id="75"><path id="" clip-rule="evenodd" transform="matrix(1 0 0 1 0 0)" d="M81 561.14L112 561.14L112 561.14L112 580.14L112 580.14L81 580.14z" /></clipPath><clipPath id="76"><path id="" clip-rule="evenodd" transform="matrix(1 0 0 1 0 0)" d="M112 561.14L210 561.14L210 561.14L210 580.14L210 580.14L112 580.14z" /></clipPath><clipPath id="77"><path id="" clip-rule="evenodd" transform="matrix(1 0 0 1 0 0)" d="M112 561.14L210 561.14L210 561.14L210 580.14L210 580.14L112 580.14z" /></clipPath><clipPath id="78"><path id="" clip-rule="evenodd" transform="matrix(1 0 0 1 0 0)" d="M210 561.14L303 561.14L303 561.14L303 580.14L303 580.14L210 580.14z" /></clipPath><clipPath id="79"><path id="" clip-rule="evenodd" transform="matrix(1 0 0 1 0 0)" d="M210 561.14L303 561.14L303 561.14L303 580.14L303 580.14L210 580.14z" /></clipPath><clipPath id="80"><path id="" clip-rule="evenodd" transform="matrix(1 0 0 1 0 0)" d="M81 580.14L112 580.14L112 580.14L112 600.14L112 600.14L81 600.14z" /></clipPath><clipPath id="81"><path id="" clip-rule="evenodd" transform="matrix(1 0 0 1 0 0)" d="M210 580.14L303 580.14L303 580.14L303 600.14L303 600.14L210 600.14z" /></clipPath><clipPath id="82"><path id="" clip-rule="evenodd" transform="matrix(1 0 0 1 0 0)" d="M303 580.14L419 580.14L419 580.14L419 600.14L419 600.14L303 600.14z" /></clipPath><clipPath id="83"><path id="" clip-rule="evenodd" transform="matrix(1 0 0 1 0 0)" d="M303 580.14L419 580.14L419 580.14L419 600.14L419 600.14L303 600.14z" /></clipPath><clipPath id="84"><path id="" clip-rule="evenodd" transform="matrix(1 0 0 1 0 0)" d="M303 580.14L419 580.14L419 580.14L419 600.14L419 600.14L303 600.14z" /></clipPath><clipPath id="85"><path id="" clip-rule="evenodd" transform="matrix(1 0 0 1 0 0)" d="M419 580.14L543 580.14L543 580.14L543 600.14L543 600.14L419 600.14z" /></clipPath><clipPath id="86"><path id="" clip-rule="evenodd" transform="matrix(1 0 0 1 0 0)" d="M419 580.14L543 580.14L543 580.14L543 600.14L543 600.14L419 600.14z" /></clipPath><clipPath id="87"><path id="" clip-rule="evenodd" transform="matrix(1 0 0 1 0 0)" d="M0 -0.8599854L595 -0.8599854L595 -0.8599854L595 840.14L595 840.14L0 840.14z" /></clipPath><clipPath id="88"><path id="" clip-rule="evenodd" transform="matrix(1 0 0 1 0 0)" d="M0 -0.8599854L595 -0.8599854L595 -0.8599854L595 840.14L595 840.14L0 840.14z" /></clipPath><clipPath id="89"><path id="" clip-rule="evenodd" transform="matrix(1 0 0 1 0 0)" d="M0 -0.8599854L595 -0.8599854L595 -0.8599854L595 840.14L595 840.14L0 840.14z" /></clipPath><clipPath id="90"><path id="" clip-rule="evenodd" transform="matrix(1 0 0 1 0 0)" d="M0 -0.8599854L595 -0.8599854L595 -0.8599854L595 840.14L595 840.14L0 840.14z" /></clipPath><clipPath id="91"><path id="" clip-rule="evenodd" transform="matrix(1 0 0 1 0 0)" d="M0 -0.8599854L595 -0.8599854L595 -0.8599854L595 840.14L595 840.14L0 840.14z" /></clipPath><clipPath id="92"><path id="" clip-rule="evenodd" transform="matrix(1 0 0 1 0 0)" d="M0 -0.8599854L595 -0.8599854L595 -0.8599854L595 840.14L595 840.14L0 840.14z" /></clipPath><clipPath id="93"><path id="" clip-rule="evenodd" transform="matrix(1 0 0 1 0 0)" d="M0 -0.8599854L595 -0.8599854L595 -0.8599854L595 840.14L595 840.14L0 840.14z" /></clipPath><clipPath id="94"><path id="" clip-rule="evenodd" transform="matrix(1 0 0 1 0 0)" d="M0 -0.8599854L595 -0.8599854L595 -0.8599854L595 840.14L595 840.14L0 840.14z" /></clipPath><clipPath id="95"><path id="" clip-rule="evenodd" transform="matrix(1 0 0 1 0 0)" d="M0 -0.8599854L595 -0.8599854L595 -0.8599854L595 840.14L595 840.14L0 840.14z" /></clipPath><clipPath id="96"><path id="" clip-rule="evenodd" transform="matrix(1 0 0 1 0 0)" d="M0 -0.8599854L595 -0.8599854L595 -0.8599854L595 840.14L595 840.14L0 840.14z" /></clipPath><clipPath id="97"><path id="" clip-rule="evenodd" transform="matrix(1 0 0 1 0 0)" d="M0 -0.8599854L595 -0.8599854L595 -0.8599854L595 840.14L595 840.14L0 840.14z" /></clipPath><clipPath id="98"><path id="" clip-rule="evenodd" transform="matrix(1 0 0 1 0 0)" d="M0 -0.8599854L595 -0.8599854L595 -0.8599854L595 840.14L595 840.14L0 840.14z" /></clipPath><clipPath id="99"><path id="" clip-rule="evenodd" transform="matrix(1 0 0 1 0 0)" d="M0 -0.8599854L595 -0.8599854L595 -0.8599854L595 840.14L595 840.14L0 840.14z" /></clipPath><clipPath id="100"><path id="" clip-rule="evenodd" transform="matrix(1 0 0 1 0 0)" d="M0 -0.8599854L595 -0.8599854L595 -0.8599854L595 840.14L595 840.14L0 840.14z" /></clipPath><clipPath id="101"><path id="" clip-rule="evenodd" transform="matrix(1 0 0 1 0 0)" d="M0 -0.8599854L595 -0.8599854L595 -0.8599854L595 840.14L595 840.14L0 840.14z" /></clipPath></defs><g transform="matrix(1.333333 0 0 1.333333 0 0)"><g clip-path="url(#1)"><g clip-path="url(#2)"></g><g clip-path="url(#3)"></g><g clip-path="url(#4)"></g><g clip-path="url(#5)"></g><g clip-path="url(#6)"></g><g clip-path="url(#7)"></g><g clip-path="url(#8)"></g><g clip-path="url(#9)"></g><g clip-path="url(#10)"></g><g clip-path="url(#11)"></g><g clip-path="url(#12)"></g><g clip-path="url(#13)"></g><g clip-path="url(#14)"></g><g clip-path="url(#15)"></g><g clip-path="url(#16)"></g><g clip-path="url(#17)"></g><g clip-path="url(#18)"></g><g clip-path="url(#19)"></g><g clip-path="url(#20)"></g><g clip-path="url(#21)"></g><g clip-path="url(#22)"></g><g clip-path="url(#23)"></g><g clip-path="url(#24)"></g><g clip-path="url(#25)"></g><g clip-path="url(#26)"></g><g clip-path="url(#27)"></g><g clip-path="url(#28)"></g><g clip-path="url(#29)"></g><g clip-path="url(#30)"></g><g clip-path="url(#31)"></g><g clip-path="url(#32)"></g><g clip-path="url(#33)"></g><g clip-path="url(#34)"></g><g clip-path="url(#35)"></g><g clip-path="url(#36)"></g><g clip-path="url(#37)"></g><g clip-path="url(#38)"></g><g clip-path="url(#39)"></g><g clip-path="url(#40)"></g><g clip-path="url(#41)"></g><g clip-path="url(#42)"></g><g clip-path="url(#43)"></g><g clip-path="url(#44)"></g><g clip-path="url(#45)"></g><g clip-path="url(#46)"></g><g clip-path="url(#47)"></g><g clip-path="url(#48)"></g><g clip-path="url(#49)"></g><g clip-path="url(#50)"></g><g clip-path="url(#51)"></g><g clip-path="url(#52)"></g><g clip-path="url(#53)"></g><g clip-path="url(#54)"></g><g clip-path="url(#55)"></g><g clip-path="url(#56)"></g><g clip-path="url(#57)"></g><g clip-path="url(#58)"></g><g clip-path="url(#59)"><path id="755" transform="matrix(1 0 0 -1 0 841)" d="M43 278.86L113 278.86L113 278.86L113 299.86L113 299.86L43 299.86z" stroke="none" fill="#FFE7D8" fill-rule="evenodd" /></g><g clip-path="url(#60)"></g><g clip-path="url(#61)"><path id="758" transform="matrix(1 0 0 -1 0 841)" d="M111 278.86L211 278.86L211 278.86L211 299.86L211 299.86L111 299.86z" stroke="none" fill="#FEE7D8" fill-rule="evenodd" /></g><g clip-path="url(#62)"></g><g clip-path="url(#63)"></g><g clip-path="url(#64)"><path id="765" transform="matrix(1 0 0 -1 0 841)" d="M209 278.86L304 278.86L304 278.86L304 299.86L304 299.86L209 299.86z" stroke="none" fill="#FEE7D8" fill-rule="evenodd" /></g><g clip-path="url(#65)"></g><g clip-path="url(#66)"></g><g clip-path="url(#67)"><path id="772" transform="matrix(1 0 0 -1 0 841)" d="M302 278.86L420 278.86L420 278.86L420 299.86L420 299.86L302 299.86z" stroke="none" fill="#FEE7D8" fill-rule="evenodd" /></g><g clip-path="url(#68)"></g><g clip-path="url(#69)"></g><g clip-path="url(#70)"><path id="779" transform="matrix(1 0 0 -1 0 841)" d="M418 278.86L544 278.86L544 278.86L544 299.86L544 299.86L418 299.86z" stroke="none" fill="#FEE7D8" fill-rule="evenodd" /></g><g clip-path="url(#71)"></g><g clip-path="url(#72)"></g><g clip-path="url(#73)"><path id="786" transform="matrix(1 0 0 -1 0 841)" d="M43 239.86L82 239.86L82 239.86L82 280.86L82 280.86L43 280.86z" stroke="none" fill="#FEE7D8" fill-rule="evenodd" /></g><g clip-path="url(#74)"></g><g clip-path="url(#75)"></g><g clip-path="url(#76)"></g><g clip-path="url(#77)"></g><g clip-path="url(#78)"></g><g clip-path="url(#79)"></g><g clip-path="url(#80)"></g><g clip-path="url(#81)"></g><g clip-path="url(#82)"></g><g clip-path="url(#83)"></g><g clip-path="url(#84)"></g><g clip-path="url(#85)"></g><g clip-path="url(#86)"></g><g clip-path="url(#87)"><path id="829" transform="matrix(1 0 0 -1 0 841)" d="M44.5 298.86L44.5 240.86" stroke="#000000" stroke-width="1" fill="none" /></g><g clip-path="url(#88)"><path id="830" transform="matrix(1 0 0 -1 0 841)" d="M81.5 279.86L81.5 240.86" stroke="#000000" stroke-width="1" fill="none" /></g><g clip-path="url(#89)"><path id="831" transform="matrix(1 0 0 -1 0 841)" d="M112.5 298.86L112.5 240.86" stroke="#000000" stroke-width="1" fill="none" /></g><g clip-path="url(#90)"><path id="832" transform="matrix(1 0 0 -1 0 841)" d="M210.5 298.86L210.5 240.86" stroke="#000000" stroke-width="1" fill="none" /></g><g clip-path="url(#91)"><path id="833" transform="matrix(1 0 0 -1 0 841)" d="M303.5 298.86L303.5 240.86" stroke="#000000" stroke-width="1" fill="none" /></g><g clip-path="url(#92)"><path id="834" transform="matrix(1 0 0 -1 0 841)" d="M419.5 298.86L419.5 240.86" stroke="#000000" stroke-width="1" fill="none" /></g><g clip-path="url(#93)"><path id="835" transform="matrix(1 0 0 -1 0 841)" d="M543.5 298.86L543.5 240.86" stroke="#000000" stroke-width="1" fill="none" /></g><g clip-path="url(#94)"><path id="836" transform="matrix(1 0 0 -1 0 841)" d="M44 298.36L543 298.36" stroke="#000000" stroke-width="1" fill="none" /></g><g clip-path="url(#95)"><path id="837" transform="matrix(1 0 0 -1 0 841)" d="M44 279.36L543 279.36" stroke="#000000" stroke-width="1" fill="none" /></g><g clip-path="url(#96)"><path id="838" transform="matrix(1 0 0 -1 0 841)" d="M81 260.36L543 260.36" stroke="#000000" stroke-width="1" fill="none" /></g><g clip-path="url(#97)"><path id="839" transform="matrix(1 0 0 -1 0 841)" d="M44 240.36L543 240.36" stroke="#000000" stroke-width="1" fill="none" /></g><g clip-path="url(#98)"><path id="840" transform="matrix(1 0 0 -1 0 841)" d="M543.5 298.86L543.5 240.86" stroke="#000000" stroke-width="1" fill="none" /></g><g clip-path="url(#99)"><path id="841" transform="matrix(1 0 0 -1 0 841)" d="M44.5 298.86L44.5 240.86" stroke="#000000" stroke-width="1" fill="none" /></g><g clip-path="url(#100)"><path id="842" transform="matrix(1 0 0 -1 0 841)" d="M44 240.36L543 240.36" stroke="#000000" stroke-width="1" fill="none" /></g><g clip-path="url(#101)"><path id="843" transform="matrix(1 0 0 -1 0 841)" d="M44 298.36L543 298.36" stroke="#000000" stroke-width="1" fill="none" /></g></g></g></svg>