<svg xmlns="http://www.w3.org/2000/svg" xmlns:xlink="http://www.w3.org/1999/xlink" id="body_10" preserveAspectRatio="xMinYMin meet" viewBox="0 0 793 1121"><defs><clipPath id="1"><path id="" clip-rule="evenodd" transform="matrix(1 0 0 1 0 0)" d="M0 841L0 -0.8599854L0 -0.8599854L595.28 -0.8599854L595.28 -0.8599854L595.28 841L595.28 841L0 841z" /></clipPath><clipPath id="2"><path id="" clip-rule="evenodd" transform="matrix(1 0 0 1 0 0)" d="M0 -0.8599854L595 -0.8599854L595 -0.8599854L595 840.14L595 840.14L0 840.14z" /></clipPath><clipPath id="3"><path id="" clip-rule="evenodd" transform="matrix(1 0 0 1 0 0)" d="M0 -0.8599854L595 -0.8599854L595 -0.8599854L595 840.14L595 840.14L0 840.14z" /></clipPath><clipPath id="4"><path id="" clip-rule="evenodd" transform="matrix(1 0 0 1 0 0)" d="M0 -0.8599854L595 -0.8599854L595 -0.8599854L595 840.14L595 840.14L0 840.14z" /></clipPath><clipPath id="5"><path id="" clip-rule="evenodd" transform="matrix(1 0 0 1 0 0)" d="M0 -0.8599854L595 -0.8599854L595 -0.8599854L595 840.14L595 840.14L0 840.14z" /></clipPath><clipPath id="6"><path id="" clip-rule="evenodd" transform="matrix(1 0 0 1 0 0)" d="M0 -0.8599854L595 -0.8599854L595 -0.8599854L595 840.14L595 840.14L0 840.14z" /></clipPath><clipPath id="7"><path id="" clip-rule="evenodd" transform="matrix(1 0 0 1 0 0)" d="M0 -0.8599854L595 -0.8599854L595 -0.8599854L595 840.14L595 840.14L0 840.14z" /></clipPath><clipPath id="8"><path id="" clip-rule="evenodd" transform="matrix(1 0 0 1 0 0)" d="M0 -0.8599854L595 -0.8599854L595 -0.8599854L595 840.14L595 840.14L0 840.14z" /></clipPath><clipPath id="9"><path id="" clip-rule="evenodd" transform="matrix(1 0 0 1 0 0)" d="M0 -0.8599854L595 -0.8599854L595 -0.8599854L595 840.14L595 840.14L0 840.14z" /></clipPath><clipPath id="10"><path id="" clip-rule="evenodd" transform="matrix(1 0 0 1 0 0)" d="M0 -0.8599854L595 -0.8599854L595 -0.8599854L595 840.14L595 840.14L0 840.14z" /></clipPath><clipPath id="11"><path id="" clip-rule="evenodd" transform="matrix(1 0 0 1 0 0)" d="M0 -0.8599854L595 -0.8599854L595 -0.8599854L595 840.14L595 840.14L0 840.14z" /></clipPath><clipPath id="12"><path id="" clip-rule="evenodd" transform="matrix(1 0 0 1 0 0)" d="M0 -0.8599854L595 -0.8599854L595 -0.8599854L595 840.14L595 840.14L0 840.14z" /></clipPath><clipPath id="13"><path id="" clip-rule="evenodd" transform="matrix(1 0 0 1 0 0)" d="M0 -0.8599854L595 -0.8599854L595 -0.8599854L595 840.14L595 840.14L0 840.14z" /></clipPath><clipPath id="14"><path id="" clip-rule="evenodd" transform="matrix(1 0 0 1 0 0)" d="M0 -0.8599854L595 -0.8599854L595 -0.8599854L595 840.14L595 840.14L0 840.14z" /></clipPath><clipPath id="15"><path id="" clip-rule="evenodd" transform="matrix(1 0 0 1 0 0)" d="M0 -0.8599854L595 -0.8599854L595 -0.8599854L595 840.14L595 840.14L0 840.14z" /></clipPath><clipPath id="16"><path id="" clip-rule="evenodd" transform="matrix(1 0 0 1 0 0)" d="M0 -0.8599854L595 -0.8599854L595 -0.8599854L595 840.14L595 840.14L0 840.14z" /></clipPath><clipPath id="17"><path id="" clip-rule="evenodd" transform="matrix(1 0 0 1 0 0)" d="M0 -0.8599854L595 -0.8599854L595 -0.8599854L595 840.14L595 840.14L0 840.14z" /></clipPath><clipPath id="18"><path id="" clip-rule="evenodd" transform="matrix(1 0 0 1 0 0)" d="M0 -0.8599854L595 -0.8599854L595 -0.8599854L595 840.14L595 840.14L0 840.14z" /></clipPath><clipPath id="19"><path id="" clip-rule="evenodd" transform="matrix(1 0 0 1 0 0)" d="M0 -0.8599854L595 -0.8599854L595 -0.8599854L595 840.14L595 840.14L0 840.14z" /></clipPath><clipPath id="20"><path id="" clip-rule="evenodd" transform="matrix(1 0 0 1 0 0)" d="M0 -0.8599854L595 -0.8599854L595 -0.8599854L595 840.14L595 840.14L0 840.14z" /></clipPath><clipPath id="21"><path id="" clip-rule="evenodd" transform="matrix(1 0 0 1 0 0)" d="M0 -0.8599854L595 -0.8599854L595 -0.8599854L595 840.14L595 840.14L0 840.14z" /></clipPath><clipPath id="22"><path id="" clip-rule="evenodd" transform="matrix(1 0 0 1 0 0)" d="M0 -0.8599854L595 -0.8599854L595 -0.8599854L595 840.14L595 840.14L0 840.14z" /></clipPath><clipPath id="23"><path id="" clip-rule="evenodd" transform="matrix(1 0 0 1 0 0)" d="M0 -0.8599854L595 -0.8599854L595 -0.8599854L595 840.14L595 840.14L0 840.14z" /></clipPath><clipPath id="24"><path id="" clip-rule="evenodd" transform="matrix(1 0 0 1 0 0)" d="M0 -0.8599854L595 -0.8599854L595 -0.8599854L595 840.14L595 840.14L0 840.14z" /></clipPath><clipPath id="25"><path id="" clip-rule="evenodd" transform="matrix(1 0 0 1 0 0)" d="M0 -0.8599854L595 -0.8599854L595 -0.8599854L595 840.14L595 840.14L0 840.14z" /></clipPath><clipPath id="26"><path id="" clip-rule="evenodd" transform="matrix(1 0 0 1 0 0)" d="M0 -0.8599854L595 -0.8599854L595 -0.8599854L595 840.14L595 840.14L0 840.14z" /></clipPath><clipPath id="27"><path id="" clip-rule="evenodd" transform="matrix(1 0 0 1 0 0)" d="M0 -0.8599854L595 -0.8599854L595 -0.8599854L595 840.14L595 840.14L0 840.14z" /></clipPath><clipPath id="28"><path id="" clip-rule="evenodd" transform="matrix(1 0 0 1 0 0)" d="M0 -0.8599854L595 -0.8599854L595 -0.8599854L595 840.14L595 840.14L0 840.14z" /></clipPath><clipPath id="29"><path id="" clip-rule="evenodd" transform="matrix(1 0 0 1 0 0)" d="M0 -0.8599854L595 -0.8599854L595 -0.8599854L595 840.14L595 840.14L0 840.14z" /></clipPath><clipPath id="30"><path id="" clip-rule="evenodd" transform="matrix(1 0 0 1 0 0)" d="M0 -0.8599854L595 -0.8599854L595 -0.8599854L595 840.14L595 840.14L0 840.14z" /></clipPath><clipPath id="31"><path id="" clip-rule="evenodd" transform="matrix(1 0 0 1 0 0)" d="M0 -0.8599854L595 -0.8599854L595 -0.8599854L595 840.14L595 840.14L0 840.14z" /></clipPath><clipPath id="32"><path id="" clip-rule="evenodd" transform="matrix(1 0 0 1 0 0)" d="M173 101.14L237 101.14L237 101.14L237 117.14L237 117.14L173 117.14z" /></clipPath><clipPath id="33"><path id="" clip-rule="evenodd" transform="matrix(1 0 0 1 0 0)" d="M58 117.14L97 117.14L97 117.14L97 148.14L97 148.14L58 148.14z" /></clipPath><clipPath id="34"><path id="" clip-rule="evenodd" transform="matrix(1 0 0 1 0 0)" d="M97 117.14L173 117.14L173 117.14L173 148.14L173 148.14L97 148.14z" /></clipPath><clipPath id="35"><path id="" clip-rule="evenodd" transform="matrix(1 0 0 1 0 0)" d="M173 117.14L237 117.14L237 117.14L237 148.14L237 148.14L173 148.14z" /></clipPath><clipPath id="36"><path id="" clip-rule="evenodd" transform="matrix(1 0 0 1 0 0)" d="M173 117.14L237 117.14L237 117.14L237 148.14L237 148.14L173 148.14z" /></clipPath><clipPath id="37"><path id="" clip-rule="evenodd" transform="matrix(1 0 0 1 0 0)" d="M237 117.14L313 117.14L313 117.14L313 148.14L313 148.14L237 148.14z" /></clipPath><clipPath id="38"><path id="" clip-rule="evenodd" transform="matrix(1 0 0 1 0 0)" d="M313 117.14L484 117.14L484 117.14L484 148.14L484 148.14L313 148.14z" /></clipPath><clipPath id="39"><path id="" clip-rule="evenodd" transform="matrix(1 0 0 1 0 0)" d="M484 117.14L557 117.14L557 117.14L557 148.14L557 148.14L484 148.14z" /></clipPath><clipPath id="40"><path id="" clip-rule="evenodd" transform="matrix(1 0 0 1 0 0)" d="M58 148.14L97 148.14L97 148.14L97 180.14L97 180.14L58 180.14z" /></clipPath><clipPath id="41"><path id="" clip-rule="evenodd" transform="matrix(1 0 0 1 0 0)" d="M97 148.14L173 148.14L173 148.14L173 180.14L173 180.14L97 180.14z" /></clipPath><clipPath id="42"><path id="" clip-rule="evenodd" transform="matrix(1 0 0 1 0 0)" d="M173 148.14L237 148.14L237 148.14L237 180.14L237 180.14L173 180.14z" /></clipPath><clipPath id="43"><path id="" clip-rule="evenodd" transform="matrix(1 0 0 1 0 0)" d="M173 148.14L237 148.14L237 148.14L237 180.14L237 180.14L173 180.14z" /></clipPath><clipPath id="44"><path id="" clip-rule="evenodd" transform="matrix(1 0 0 1 0 0)" d="M237 148.14L313 148.14L313 148.14L313 180.14L313 180.14L237 180.14z" /></clipPath><clipPath id="45"><path id="" clip-rule="evenodd" transform="matrix(1 0 0 1 0 0)" d="M313 148.14L484 148.14L484 148.14L484 180.14L484 180.14L313 180.14z" /></clipPath><clipPath id="46"><path id="" clip-rule="evenodd" transform="matrix(1 0 0 1 0 0)" d="M484 148.14L557 148.14L557 148.14L557 180.14L557 180.14L484 180.14z" /></clipPath><clipPath id="47"><path id="" clip-rule="evenodd" transform="matrix(1 0 0 1 0 0)" d="M58 180.14L97 180.14L97 180.14L97 212.14L97 212.14L58 212.14z" /></clipPath><clipPath id="48"><path id="" clip-rule="evenodd" transform="matrix(1 0 0 1 0 0)" d="M97 180.14L173 180.14L173 180.14L173 212.14L173 212.14L97 212.14z" /></clipPath><clipPath id="49"><path id="" clip-rule="evenodd" transform="matrix(1 0 0 1 0 0)" d="M173 180.14L237 180.14L237 180.14L237 212.14L237 212.14L173 212.14z" /></clipPath><clipPath id="50"><path id="" clip-rule="evenodd" transform="matrix(1 0 0 1 0 0)" d="M173 180.14L237 180.14L237 180.14L237 212.14L237 212.14L173 212.14z" /></clipPath><clipPath id="51"><path id="" clip-rule="evenodd" transform="matrix(1 0 0 1 0 0)" d="M237 180.14L313 180.14L313 180.14L313 212.14L313 212.14L237 212.14z" /></clipPath><clipPath id="52"><path id="" clip-rule="evenodd" transform="matrix(1 0 0 1 0 0)" d="M313 180.14L484 180.14L484 180.14L484 212.14L484 212.14L313 212.14z" /></clipPath><clipPath id="53"><path id="" clip-rule="evenodd" transform="matrix(1 0 0 1 0 0)" d="M484 180.14L557 180.14L557 180.14L557 212.14L557 212.14L484 212.14z" /></clipPath><clipPath id="54"><path id="" clip-rule="evenodd" transform="matrix(1 0 0 1 0 0)" d="M58 212.14L97 212.14L97 212.14L97 244.14L97 244.14L58 244.14z" /></clipPath><clipPath id="55"><path id="" clip-rule="evenodd" transform="matrix(1 0 0 1 0 0)" d="M97 212.14L173 212.14L173 212.14L173 244.14L173 244.14L97 244.14z" /></clipPath><clipPath id="56"><path id="" clip-rule="evenodd" transform="matrix(1 0 0 1 0 0)" d="M173 212.14L237 212.14L237 212.14L237 244.14L237 244.14L173 244.14z" /></clipPath><clipPath id="57"><path id="" clip-rule="evenodd" transform="matrix(1 0 0 1 0 0)" d="M173 212.14L237 212.14L237 212.14L237 244.14L237 244.14L173 244.14z" /></clipPath><clipPath id="58"><path id="" clip-rule="evenodd" transform="matrix(1 0 0 1 0 0)" d="M237 212.14L313 212.14L313 212.14L313 244.14L313 244.14L237 244.14z" /></clipPath><clipPath id="59"><path id="" clip-rule="evenodd" transform="matrix(1 0 0 1 0 0)" d="M313 212.14L484 212.14L484 212.14L484 244.14L484 244.14L313 244.14z" /></clipPath><clipPath id="60"><path id="" clip-rule="evenodd" transform="matrix(1 0 0 1 0 0)" d="M484 212.14L557 212.14L557 212.14L557 244.14L557 244.14L484 244.14z" /></clipPath><clipPath id="61"><path id="" clip-rule="evenodd" transform="matrix(1 0 0 1 0 0)" d="M58 244.14L97 244.14L97 244.14L97 276.14L97 276.14L58 276.14z" /></clipPath><clipPath id="62"><path id="" clip-rule="evenodd" transform="matrix(1 0 0 1 0 0)" d="M97 244.14L173 244.14L173 244.14L173 276.14L173 276.14L97 276.14z" /></clipPath><clipPath id="63"><path id="" clip-rule="evenodd" transform="matrix(1 0 0 1 0 0)" d="M173 244.14L237 244.14L237 244.14L237 276.14L237 276.14L173 276.14z" /></clipPath><clipPath id="64"><path id="" clip-rule="evenodd" transform="matrix(1 0 0 1 0 0)" d="M173 244.14L237 244.14L237 244.14L237 276.14L237 276.14L173 276.14z" /></clipPath><clipPath id="65"><path id="" clip-rule="evenodd" transform="matrix(1 0 0 1 0 0)" d="M237 244.14L313 244.14L313 244.14L313 276.14L313 276.14L237 276.14z" /></clipPath><clipPath id="66"><path id="" clip-rule="evenodd" transform="matrix(1 0 0 1 0 0)" d="M313 244.14L484 244.14L484 244.14L484 276.14L484 276.14L313 276.14z" /></clipPath><clipPath id="67"><path id="" clip-rule="evenodd" transform="matrix(1 0 0 1 0 0)" d="M484 244.14L557 244.14L557 244.14L557 276.14L557 276.14L484 276.14z" /></clipPath><clipPath id="68"><path id="" clip-rule="evenodd" transform="matrix(1 0 0 1 0 0)" d="M58 276.14L97 276.14L97 276.14L97 308.14L97 308.14L58 308.14z" /></clipPath><clipPath id="69"><path id="" clip-rule="evenodd" transform="matrix(1 0 0 1 0 0)" d="M97 276.14L173 276.14L173 276.14L173 308.14L173 308.14L97 308.14z" /></clipPath><clipPath id="70"><path id="" clip-rule="evenodd" transform="matrix(1 0 0 1 0 0)" d="M173 276.14L237 276.14L237 276.14L237 308.14L237 308.14L173 308.14z" /></clipPath><clipPath id="71"><path id="" clip-rule="evenodd" transform="matrix(1 0 0 1 0 0)" d="M173 276.14L237 276.14L237 276.14L237 308.14L237 308.14L173 308.14z" /></clipPath><clipPath id="72"><path id="" clip-rule="evenodd" transform="matrix(1 0 0 1 0 0)" d="M237 276.14L313 276.14L313 276.14L313 308.14L313 308.14L237 308.14z" /></clipPath><clipPath id="73"><path id="" clip-rule="evenodd" transform="matrix(1 0 0 1 0 0)" d="M313 276.14L484 276.14L484 276.14L484 308.14L484 308.14L313 308.14z" /></clipPath><clipPath id="74"><path id="" clip-rule="evenodd" transform="matrix(1 0 0 1 0 0)" d="M313 276.14L484 276.14L484 276.14L484 308.14L484 308.14L313 308.14z" /></clipPath><clipPath id="75"><path id="" clip-rule="evenodd" transform="matrix(1 0 0 1 0 0)" d="M484 276.14L557 276.14L557 276.14L557 308.14L557 308.14L484 308.14z" /></clipPath><clipPath id="76"><path id="" clip-rule="evenodd" transform="matrix(1 0 0 1 0 0)" d="M58 308.14L97 308.14L97 308.14L97 339.14L97 339.14L58 339.14z" /></clipPath><clipPath id="77"><path id="" clip-rule="evenodd" transform="matrix(1 0 0 1 0 0)" d="M97 308.14L173 308.14L173 308.14L173 339.14L173 339.14L97 339.14z" /></clipPath><clipPath id="78"><path id="" clip-rule="evenodd" transform="matrix(1 0 0 1 0 0)" d="M173 308.14L237 308.14L237 308.14L237 339.14L237 339.14L173 339.14z" /></clipPath><clipPath id="79"><path id="" clip-rule="evenodd" transform="matrix(1 0 0 1 0 0)" d="M173 308.14L237 308.14L237 308.14L237 339.14L237 339.14L173 339.14z" /></clipPath><clipPath id="80"><path id="" clip-rule="evenodd" transform="matrix(1 0 0 1 0 0)" d="M237 308.14L313 308.14L313 308.14L313 339.14L313 339.14L237 339.14z" /></clipPath><clipPath id="81"><path id="" clip-rule="evenodd" transform="matrix(1 0 0 1 0 0)" d="M313 308.14L484 308.14L484 308.14L484 339.14L484 339.14L313 339.14z" /></clipPath><clipPath id="82"><path id="" clip-rule="evenodd" transform="matrix(1 0 0 1 0 0)" d="M484 308.14L557 308.14L557 308.14L557 339.14L557 339.14L484 339.14z" /></clipPath><clipPath id="83"><path id="" clip-rule="evenodd" transform="matrix(1 0 0 1 0 0)" d="M58 339.14L97 339.14L97 339.14L97 371.14L97 371.14L58 371.14z" /></clipPath><clipPath id="84"><path id="" clip-rule="evenodd" transform="matrix(1 0 0 1 0 0)" d="M97 339.14L173 339.14L173 339.14L173 371.14L173 371.14L97 371.14z" /></clipPath><clipPath id="85"><path id="" clip-rule="evenodd" transform="matrix(1 0 0 1 0 0)" d="M173 339.14L237 339.14L237 339.14L237 371.14L237 371.14L173 371.14z" /></clipPath><clipPath id="86"><path id="" clip-rule="evenodd" transform="matrix(1 0 0 1 0 0)" d="M173 339.14L237 339.14L237 339.14L237 371.14L237 371.14L173 371.14z" /></clipPath><clipPath id="87"><path id="" clip-rule="evenodd" transform="matrix(1 0 0 1 0 0)" d="M237 339.14L313 339.14L313 339.14L313 371.14L313 371.14L237 371.14z" /></clipPath><clipPath id="88"><path id="" clip-rule="evenodd" transform="matrix(1 0 0 1 0 0)" d="M313 339.14L484 339.14L484 339.14L484 371.14L484 371.14L313 371.14z" /></clipPath><clipPath id="89"><path id="" clip-rule="evenodd" transform="matrix(1 0 0 1 0 0)" d="M484 339.14L557 339.14L557 339.14L557 371.14L557 371.14L484 371.14z" /></clipPath><clipPath id="90"><path id="" clip-rule="evenodd" transform="matrix(1 0 0 1 0 0)" d="M58 371.14L97 371.14L97 371.14L97 403.14L97 403.14L58 403.14z" /></clipPath><clipPath id="91"><path id="" clip-rule="evenodd" transform="matrix(1 0 0 1 0 0)" d="M97 371.14L173 371.14L173 371.14L173 403.14L173 403.14L97 403.14z" /></clipPath><clipPath id="92"><path id="" clip-rule="evenodd" transform="matrix(1 0 0 1 0 0)" d="M173 371.14L237 371.14L237 371.14L237 403.14L237 403.14L173 403.14z" /></clipPath><clipPath id="93"><path id="" clip-rule="evenodd" transform="matrix(1 0 0 1 0 0)" d="M173 371.14L237 371.14L237 371.14L237 403.14L237 403.14L173 403.14z" /></clipPath><clipPath id="94"><path id="" clip-rule="evenodd" transform="matrix(1 0 0 1 0 0)" d="M237 371.14L313 371.14L313 371.14L313 403.14L313 403.14L237 403.14z" /></clipPath><clipPath id="95"><path id="" clip-rule="evenodd" transform="matrix(1 0 0 1 0 0)" d="M313 371.14L484 371.14L484 371.14L484 403.14L484 403.14L313 403.14z" /></clipPath><clipPath id="96"><path id="" clip-rule="evenodd" transform="matrix(1 0 0 1 0 0)" d="M484 371.14L557 371.14L557 371.14L557 403.14L557 403.14L484 403.14z" /></clipPath><clipPath id="97"><path id="" clip-rule="evenodd" transform="matrix(1 0 0 1 0 0)" d="M0 -0.8599854L595 -0.8599854L595 -0.8599854L595 840.14L595 840.14L0 840.14z" /></clipPath><clipPath id="98"><path id="" clip-rule="evenodd" transform="matrix(1 0 0 1 0 0)" d="M0 -0.8599854L595 -0.8599854L595 -0.8599854L595 840.14L595 840.14L0 840.14z" /></clipPath><clipPath id="99"><path id="" clip-rule="evenodd" transform="matrix(1 0 0 1 0 0)" d="M0 -0.8599854L595 -0.8599854L595 -0.8599854L595 840.14L595 840.14L0 840.14z" /></clipPath><clipPath id="100"><path id="" clip-rule="evenodd" transform="matrix(1 0 0 1 0 0)" d="M0 -0.8599854L595 -0.8599854L595 -0.8599854L595 840.14L595 840.14L0 840.14z" /></clipPath><clipPath id="101"><path id="" clip-rule="evenodd" transform="matrix(1 0 0 1 0 0)" d="M0 -0.8599854L595 -0.8599854L595 -0.8599854L595 840.14L595 840.14L0 840.14z" /></clipPath><clipPath id="102"><path id="" clip-rule="evenodd" transform="matrix(1 0 0 1 0 0)" d="M0 -0.8599854L595 -0.8599854L595 -0.8599854L595 840.14L595 840.14L0 840.14z" /></clipPath><clipPath id="103"><path id="" clip-rule="evenodd" transform="matrix(1 0 0 1 0 0)" d="M0 -0.8599854L595 -0.8599854L595 -0.8599854L595 840.14L595 840.14L0 840.14z" /></clipPath><clipPath id="104"><path id="" clip-rule="evenodd" transform="matrix(1 0 0 1 0 0)" d="M0 -0.8599854L595 -0.8599854L595 -0.8599854L595 840.14L595 840.14L0 840.14z" /></clipPath><clipPath id="105"><path id="" clip-rule="evenodd" transform="matrix(1 0 0 1 0 0)" d="M0 -0.8599854L595 -0.8599854L595 -0.8599854L595 840.14L595 840.14L0 840.14z" /></clipPath><clipPath id="106"><path id="" clip-rule="evenodd" transform="matrix(1 0 0 1 0 0)" d="M0 -0.8599854L595 -0.8599854L595 -0.8599854L595 840.14L595 840.14L0 840.14z" /></clipPath><clipPath id="107"><path id="" clip-rule="evenodd" transform="matrix(1 0 0 1 0 0)" d="M0 -0.8599854L595 -0.8599854L595 -0.8599854L595 840.14L595 840.14L0 840.14z" /></clipPath><clipPath id="108"><path id="" clip-rule="evenodd" transform="matrix(1 0 0 1 0 0)" d="M0 -0.8599854L595 -0.8599854L595 -0.8599854L595 840.14L595 840.14L0 840.14z" /></clipPath><clipPath id="109"><path id="" clip-rule="evenodd" transform="matrix(1 0 0 1 0 0)" d="M0 -0.8599854L595 -0.8599854L595 -0.8599854L595 840.14L595 840.14L0 840.14z" /></clipPath><clipPath id="110"><path id="" clip-rule="evenodd" transform="matrix(1 0 0 1 0 0)" d="M0 -0.8599854L595 -0.8599854L595 -0.8599854L595 840.14L595 840.14L0 840.14z" /></clipPath><clipPath id="111"><path id="" clip-rule="evenodd" transform="matrix(1 0 0 1 0 0)" d="M0 -0.8599854L595 -0.8599854L595 -0.8599854L595 840.14L595 840.14L0 840.14z" /></clipPath><clipPath id="112"><path id="" clip-rule="evenodd" transform="matrix(1 0 0 1 0 0)" d="M0 -0.8599854L595 -0.8599854L595 -0.8599854L595 840.14L595 840.14L0 840.14z" /></clipPath><clipPath id="113"><path id="" clip-rule="evenodd" transform="matrix(1 0 0 1 0 0)" d="M0 -0.8599854L595 -0.8599854L595 -0.8599854L595 840.14L595 840.14L0 840.14z" /></clipPath><clipPath id="114"><path id="" clip-rule="evenodd" transform="matrix(1 0 0 1 0 0)" d="M0 -0.8599854L595 -0.8599854L595 -0.8599854L595 840.14L595 840.14L0 840.14z" /></clipPath><clipPath id="115"><path id="" clip-rule="evenodd" transform="matrix(1 0 0 1 0 0)" d="M0 -0.8599854L595 -0.8599854L595 -0.8599854L595 840.14L595 840.14L0 840.14z" /></clipPath><clipPath id="116"><path id="" clip-rule="evenodd" transform="matrix(1 0 0 1 0 0)" d="M0 -0.8599854L595 -0.8599854L595 -0.8599854L595 840.14L595 840.14L0 840.14z" /></clipPath><clipPath id="117"><path id="" clip-rule="evenodd" transform="matrix(1 0 0 1 0 0)" d="M0 -0.8599854L595 -0.8599854L595 -0.8599854L595 840.14L595 840.14L0 840.14z" /></clipPath><clipPath id="118"><path id="" clip-rule="evenodd" transform="matrix(1 0 0 1 0 0)" d="M0 -0.8599854L595 -0.8599854L595 -0.8599854L595 840.14L595 840.14L0 840.14z" /></clipPath></defs><g transform="matrix(1.333333 0 0 1.333333 0 0)"><g clip-path="url(#1)"><g clip-path="url(#2)"></g><g clip-path="url(#3)"></g><g clip-path="url(#4)"></g><g clip-path="url(#5)"></g><g clip-path="url(#6)"></g><g clip-path="url(#7)"></g><g clip-path="url(#8)"></g><g clip-path="url(#9)"></g><g clip-path="url(#10)"></g><g clip-path="url(#11)"></g><g clip-path="url(#12)"></g><g clip-path="url(#13)"></g><g clip-path="url(#14)"></g><g clip-path="url(#15)"></g><g clip-path="url(#16)"></g><g clip-path="url(#17)"></g><g clip-path="url(#18)"></g><g clip-path="url(#19)"></g><g clip-path="url(#20)"></g><g clip-path="url(#21)"></g><g clip-path="url(#22)"></g><g clip-path="url(#23)"></g><g clip-path="url(#24)"></g><g clip-path="url(#25)"></g><g clip-path="url(#26)"></g><g clip-path="url(#27)"></g><g clip-path="url(#28)"></g><g clip-path="url(#29)"></g><g clip-path="url(#30)"></g><g clip-path="url(#31)"></g><g clip-path="url(#32)"></g><g clip-path="url(#33)"></g><g clip-path="url(#34)"></g><g clip-path="url(#35)"></g><g clip-path="url(#36)"></g><g clip-path="url(#37)"></g><g clip-path="url(#38)"></g><g clip-path="url(#39)"></g><g clip-path="url(#40)"></g><g clip-path="url(#41)"></g><g clip-path="url(#42)"></g><g clip-path="url(#43)"></g><g clip-path="url(#44)"></g><g clip-path="url(#45)"></g><g clip-path="url(#46)"></g><g clip-path="url(#47)"></g><g clip-path="url(#48)"></g><g clip-path="url(#49)"></g><g clip-path="url(#50)"></g><g clip-path="url(#51)"></g><g clip-path="url(#52)"></g><g clip-path="url(#53)"></g><g clip-path="url(#54)"></g><g clip-path="url(#55)"></g><g clip-path="url(#56)"></g><g clip-path="url(#57)"></g><g clip-path="url(#58)"></g><g clip-path="url(#59)"></g><g clip-path="url(#60)"></g><g clip-path="url(#61)"></g><g clip-path="url(#62)"></g><g clip-path="url(#63)"></g><g clip-path="url(#64)"></g><g clip-path="url(#65)"></g><g clip-path="url(#66)"></g><g clip-path="url(#67)"></g><g clip-path="url(#68)"></g><g clip-path="url(#69)"></g><g clip-path="url(#70)"></g><g clip-path="url(#71)"></g><g clip-path="url(#72)"></g><g clip-path="url(#73)"></g><g clip-path="url(#74)"></g><g clip-path="url(#75)"></g><g clip-path="url(#76)"></g><g clip-path="url(#77)"></g><g clip-path="url(#78)"></g><g clip-path="url(#79)"></g><g clip-path="url(#80)"></g><g clip-path="url(#81)"></g><g clip-path="url(#82)"></g><g clip-path="url(#83)"></g><g clip-path="url(#84)"></g><g clip-path="url(#85)"></g><g clip-path="url(#86)"></g><g clip-path="url(#87)"></g><g clip-path="url(#88)"></g><g clip-path="url(#89)"></g><g clip-path="url(#90)"></g><g clip-path="url(#91)"></g><g clip-path="url(#92)"></g><g clip-path="url(#93)"></g><g clip-path="url(#94)"></g><g clip-path="url(#95)"></g><g clip-path="url(#96)"></g><g clip-path="url(#97)"><path id="655" transform="matrix(1 0 0 -1 0 841)" d="M58.5 739.86L58.5 437.86" stroke="#000000" stroke-width="1" fill="none" /></g><g clip-path="url(#98)"><path id="656" transform="matrix(1 0 0 -1 0 841)" d="M97.5 739.86L97.5 437.86" stroke="#000000" stroke-width="1" fill="none" /></g><g clip-path="url(#99)"><path id="657" transform="matrix(1 0 0 -1 0 841)" d="M173.5 739.86L173.5 437.86" stroke="#000000" stroke-width="1" fill="none" /></g><g clip-path="url(#100)"><path id="658" transform="matrix(1 0 0 -1 0 841)" d="M237.5 739.86L237.5 437.86" stroke="#000000" stroke-width="1" fill="none" /></g><g clip-path="url(#101)"><path id="659" transform="matrix(1 0 0 -1 0 841)" d="M313.5 739.86L313.5 437.86" stroke="#000000" stroke-width="1" fill="none" /></g><g clip-path="url(#102)"><path id="660" transform="matrix(1 0 0 -1 0 841)" d="M484.5 739.86L484.5 437.86" stroke="#000000" stroke-width="1" fill="none" /></g><g clip-path="url(#103)"><path id="661" transform="matrix(1 0 0 -1 0 841)" d="M557.5 739.86L557.5 437.86" stroke="#000000" stroke-width="1" fill="none" /></g><g clip-path="url(#104)"><path id="662" transform="matrix(1 0 0 -1 0 841)" d="M58 739.36L557 739.36" stroke="#000000" stroke-width="1" fill="none" /></g><g clip-path="url(#105)"><path id="663" transform="matrix(1 0 0 -1 0 841)" d="M58 723.36L557 723.36" stroke="#000000" stroke-width="1" fill="none" /></g><g clip-path="url(#106)"><path id="664" transform="matrix(1 0 0 -1 0 841)" d="M58 692.36L557 692.36" stroke="#000000" stroke-width="1" fill="none" /></g><g clip-path="url(#107)"><path id="665" transform="matrix(1 0 0 -1 0 841)" d="M58 660.36L557 660.36" stroke="#000000" stroke-width="1" fill="none" /></g><g clip-path="url(#108)"><path id="666" transform="matrix(1 0 0 -1 0 841)" d="M58 628.36L557 628.36" stroke="#000000" stroke-width="1" fill="none" /></g><g clip-path="url(#109)"><path id="667" transform="matrix(1 0 0 -1 0 841)" d="M58 596.36L557 596.36" stroke="#000000" stroke-width="1" fill="none" /></g><g clip-path="url(#110)"><path id="668" transform="matrix(1 0 0 -1 0 841)" d="M58 564.36L557 564.36" stroke="#000000" stroke-width="1" fill="none" /></g><g clip-path="url(#111)"><path id="669" transform="matrix(1 0 0 -1 0 841)" d="M58 532.36L557 532.36" stroke="#000000" stroke-width="1" fill="none" /></g><g clip-path="url(#112)"><path id="670" transform="matrix(1 0 0 -1 0 841)" d="M58 501.36L557 501.36" stroke="#000000" stroke-width="1" fill="none" /></g><g clip-path="url(#113)"><path id="671" transform="matrix(1 0 0 -1 0 841)" d="M58 469.36L557 469.36" stroke="#000000" stroke-width="1" fill="none" /></g><g clip-path="url(#114)"><path id="672" transform="matrix(1 0 0 -1 0 841)" d="M58 437.36L557 437.36" stroke="#000000" stroke-width="1" fill="none" /></g><g clip-path="url(#115)"><path id="673" transform="matrix(1 0 0 -1 0 841)" d="M557.5 739.86L557.5 437.86" stroke="#000000" stroke-width="1" fill="none" /></g><g clip-path="url(#116)"><path id="674" transform="matrix(1 0 0 -1 0 841)" d="M58.5 739.86L58.5 437.86" stroke="#000000" stroke-width="1" fill="none" /></g><g clip-path="url(#117)"><path id="675" transform="matrix(1 0 0 -1 0 841)" d="M58 437.36L557 437.36" stroke="#000000" stroke-width="1" fill="none" /></g><g clip-path="url(#118)"><path id="676" transform="matrix(1 0 0 -1 0 841)" d="M58 739.36L557 739.36" stroke="#000000" stroke-width="1" fill="none" /></g></g></g></svg>