<svg xmlns="http://www.w3.org/2000/svg" xmlns:xlink="http://www.w3.org/1999/xlink" id="body_4" preserveAspectRatio="xMinYMin meet" viewBox="0 0 793 1121"><defs><clipPath id="1"><path id="" clip-rule="evenodd" transform="matrix(1 0 0 1 0 0)" d="M0 841L0 0L0 0L595 0L595 0L595 841L595 841L0 841z" /></clipPath><clipPath id="2"><path id="" clip-rule="evenodd" transform="matrix(1 0 0 1 0 0)" d="M0 0L594.88 0L594.88 0L594.88 841L594.88 841L0 841z" /></clipPath><clipPath id="3"><path id="" clip-rule="evenodd" transform="matrix(1 0 0 1 0 0)" d="M0 0L594.88 0L594.88 0L594.88 841L594.88 841L0 841z" /></clipPath><clipPath id="4"><path id="" clip-rule="evenodd" transform="matrix(1 0 0 1 0 0)" d="M0 0L594.88 0L594.88 0L594.88 841L594.88 841L0 841z" /></clipPath><clipPath id="5"><path id="" clip-rule="evenodd" transform="matrix(1 0 0 1 0 0)" d="M0 0L594.88 0L594.88 0L594.88 841L594.88 841L0 841z" /></clipPath><clipPath id="6"><path id="" clip-rule="evenodd" transform="matrix(1 0 0 1 0 0)" d="M0 0L594.88 0L594.88 0L594.88 841L594.88 841L0 841z" /></clipPath><clipPath id="7"><path id="" clip-rule="evenodd" transform="matrix(1 0 0 1 0 0)" d="M0 0L594.88 0L594.88 0L594.88 841L594.88 841L0 841z" /></clipPath><clipPath id="8"><path id="" clip-rule="evenodd" transform="matrix(1 0 0 1 0 0)" d="M0 0L594.88 0L594.88 0L594.88 841L594.88 841L0 841z" /></clipPath></defs><g transform="matrix(1.333333 0 0 1.333333 0 0)"><g clip-path="url(#1)"><g clip-path="url(#2)"></g><g clip-path="url(#3)"></g><g clip-path="url(#4)"></g><g clip-path="url(#5)"></g><g clip-path="url(#6)"></g><g clip-path="url(#7)"></g><g clip-path="url(#8)"><path id="306" transform="matrix(1 0 0 -1 0 841)" d="M58.289 628.592L58.289 505.727" stroke="#000000" stroke-width="0.36" fill="none" /><path id="307" transform="matrix(1 0 0 -1 0 841)" d="M208.448 628.592L208.448 505.727" stroke="#000000" stroke-width="0.36" fill="none" /><path id="308" transform="matrix(1 0 0 -1 0 841)" d="M548.225 628.592L548.225 505.727" stroke="#000000" stroke-width="0.36" fill="none" /><path id="309" transform="matrix(1 0 0 -1 0 841)" d="M58.169 628.592L548.465 628.592" stroke="#000000" stroke-width="0.36" fill="none" /><path id="310" transform="matrix(1 0 0 -1 0 841)" d="M58.169 601.502L548.465 601.502" stroke="#000000" stroke-width="0.36" fill="none" /><path id="311" transform="matrix(1 0 0 -1 0 841)" d="M58.169 532.817L548.465 532.817" stroke="#000000" stroke-width="0.36" fill="none" /><path id="312" transform="matrix(1 0 0 -1 0 841)" d="M58.169 505.727L548.465 505.727" stroke="#000000" stroke-width="0.36" fill="none" /><path id="313" transform="matrix(1 0 0 -1 0 841)" d="M548.225 628.592L548.225 505.727" stroke="#000000" stroke-width="0.36" fill="none" /><path id="314" transform="matrix(1 0 0 -1 0 841)" d="M58.289 628.592L58.289 505.727" stroke="#000000" stroke-width="0.36" fill="none" /><path id="315" transform="matrix(1 0 0 -1 0 841)" d="M58.169 505.727L548.465 505.727" stroke="#000000" stroke-width="0.36" fill="none" /><path id="316" transform="matrix(1 0 0 -1 0 841)" d="M58.169 628.592L548.465 628.592" stroke="#000000" stroke-width="0.36" fill="none" /></g></g></g></svg>