<svg xmlns="http://www.w3.org/2000/svg" xmlns:xlink="http://www.w3.org/1999/xlink" id="body_1" preserveAspectRatio="xMinYMin meet" viewBox="0 0 793 1121"><defs><clipPath id="1"><path id="" clip-rule="evenodd" transform="matrix(1 0 0 1 0 0)" d="M0 841L0 0L0 0L595 0L595 0L595 841L595 841L0 841z" /></clipPath><clipPath id="2"><path id="" clip-rule="evenodd" transform="matrix(1 0 0 1 0 0)" d="M0 0L594.88 0L594.88 0L594.88 841L594.88 841L0 841z" /></clipPath><clipPath id="3"><path id="" clip-rule="evenodd" transform="matrix(1 0 0 1 0 0)" d="M0 0L594.88 0L594.88 0L594.88 841L594.88 841L0 841z" /></clipPath><clipPath id="4"><path id="" clip-rule="evenodd" transform="matrix(1 0 0 1 0 0)" d="M0 0L594.88 0L594.88 0L594.88 841L594.88 841L0 841z" /></clipPath><clipPath id="5"><path id="" clip-rule="evenodd" transform="matrix(1 0 0 1 0 0)" d="M0 0L594.88 0L594.88 0L594.88 841L594.88 841L0 841z" /></clipPath><clipPath id="6"><path id="" clip-rule="evenodd" transform="matrix(1 0 0 1 0 0)" d="M0 0L594.88 0L594.88 0L594.88 841L594.88 841L0 841z" /></clipPath><clipPath id="7"><path id="" clip-rule="evenodd" transform="matrix(1 0 0 1 0 0)" d="M0 0L594.88 0L594.88 0L594.88 841L594.88 841L0 841z" /></clipPath><clipPath id="8"><path id="" clip-rule="evenodd" transform="matrix(1 0 0 1 0 0)" d="M0 0L594.88 0L594.88 0L594.88 841L594.88 841L0 841z" /></clipPath><clipPath id="9"><path id="" clip-rule="evenodd" transform="matrix(1 0 0 1 0 0)" d="M0 0L594.88 0L594.88 0L594.88 841L594.88 841L0 841z" /></clipPath><clipPath id="10"><path id="" clip-rule="evenodd" transform="matrix(1 0 0 1 0 0)" d="M0 0L594.88 0L594.88 0L594.88 841L594.88 841L0 841z" /></clipPath><clipPath id="11"><path id="" clip-rule="evenodd" transform="matrix(1 0 0 1 0 0)" d="M0 0L594.88 0L594.88 0L594.88 841L594.88 841L0 841z" /></clipPath><clipPath id="12"><path id="" clip-rule="evenodd" transform="matrix(1 0 0 1 0 0)" d="M0 0L594.88 0L594.88 0L594.88 841L594.88 841L0 841z" /></clipPath><clipPath id="13"><path id="" clip-rule="evenodd" transform="matrix(1 0 0 1 0 0)" d="M0 0L594.88 0L594.88 0L594.88 841L594.88 841L0 841z" /></clipPath><clipPath id="14"><path id="" clip-rule="evenodd" transform="matrix(1 0 0 1 0 0)" d="M0 0L594.88 0L594.88 0L594.88 841L594.88 841L0 841z" /></clipPath><clipPath id="15"><path id="" clip-rule="evenodd" transform="matrix(1 0 0 1 0 0)" d="M0 0L594.88 0L594.88 0L594.88 841L594.88 841L0 841z" /></clipPath><clipPath id="16"><path id="" clip-rule="evenodd" transform="matrix(1 0 0 1 0 0)" d="M0 0L594.88 0L594.88 0L594.88 841L594.88 841L0 841z" /></clipPath><clipPath id="17"><path id="" clip-rule="evenodd" transform="matrix(1 0 0 1 0 0)" d="M0 0L594.88 0L594.88 0L594.88 841L594.88 841L0 841z" /></clipPath><clipPath id="18"><path id="" clip-rule="evenodd" transform="matrix(1 0 0 1 0 0)" d="M0 0L594.88 0L594.88 0L594.88 841L594.88 841L0 841z" /></clipPath><clipPath id="19"><path id="" clip-rule="evenodd" transform="matrix(1 0 0 1 0 0)" d="M0 0L594.88 0L594.88 0L594.88 841L594.88 841L0 841z" /></clipPath><clipPath id="20"><path id="" clip-rule="evenodd" transform="matrix(1 0 0 1 0 0)" d="M0 0L594.88 0L594.88 0L594.88 841L594.88 841L0 841z" /></clipPath></defs><g transform="matrix(1.333333 0 0 1.333333 0 0)"><g clip-path="url(#1)"><g clip-path="url(#2)"></g><g clip-path="url(#3)"></g><g clip-path="url(#4)"></g><g clip-path="url(#5)"></g><g clip-path="url(#6)"></g><g clip-path="url(#7)"></g><g clip-path="url(#8)"></g><g clip-path="url(#9)"></g><g clip-path="url(#10)"></g><g clip-path="url(#11)"></g><g clip-path="url(#12)"></g><g clip-path="url(#13)"></g><g clip-path="url(#14)"></g><g clip-path="url(#15)"></g><g clip-path="url(#16)"></g><g clip-path="url(#17)"></g><g clip-path="url(#18)"></g><g clip-path="url(#19)"></g><g clip-path="url(#20)"><path id="309" transform="matrix(1 0 0 -1 0 841)" d="M64.765 738.992L64.765 504.528" stroke="#000000" stroke-width="0.36" fill="none" /><path id="310" transform="matrix(1 0 0 -1 0 841)" d="M138.645 738.992L138.645 504.528" stroke="#000000" stroke-width="0.36" fill="none" /><path id="311" transform="matrix(1 0 0 -1 0 841)" d="M549.065 738.992L549.065 504.528" stroke="#000000" stroke-width="0.36" fill="none" /><path id="312" transform="matrix(1 0 0 -1 0 841)" d="M64.645 738.992L549.305 738.992" stroke="#000000" stroke-width="0.36" fill="none" /><path id="313" transform="matrix(1 0 0 -1 0 841)" d="M64.645 722.21L549.305 722.21" stroke="#000000" stroke-width="0.36" fill="none" /><path id="314" transform="matrix(1 0 0 -1 0 841)" d="M64.645 701.832L549.305 701.832" stroke="#000000" stroke-width="0.36" fill="none" /><path id="315" transform="matrix(1 0 0 -1 0 841)" d="M64.645 681.335L549.305 681.335" stroke="#000000" stroke-width="0.36" fill="none" /><path id="316" transform="matrix(1 0 0 -1 0 841)" d="M64.645 660.837L549.305 660.837" stroke="#000000" stroke-width="0.36" fill="none" /><path id="317" transform="matrix(1 0 0 -1 0 841)" d="M64.645 640.459L549.305 640.459" stroke="#000000" stroke-width="0.36" fill="none" /><path id="318" transform="matrix(1 0 0 -1 0 841)" d="M64.645 606.417L549.305 606.417" stroke="#000000" stroke-width="0.36" fill="none" /><path id="319" transform="matrix(1 0 0 -1 0 841)" d="M64.645 572.494L549.305 572.494" stroke="#000000" stroke-width="0.36" fill="none" /><path id="320" transform="matrix(1 0 0 -1 0 841)" d="M64.645 538.451L549.305 538.451" stroke="#000000" stroke-width="0.36" fill="none" /><path id="321" transform="matrix(1 0 0 -1 0 841)" d="M64.645 504.528L549.305 504.528" stroke="#000000" stroke-width="0.36" fill="none" /><path id="322" transform="matrix(1 0 0 -1 0 841)" d="M549.065 738.992L549.065 504.528" stroke="#000000" stroke-width="0.36" fill="none" /><path id="323" transform="matrix(1 0 0 -1 0 841)" d="M64.765 738.992L64.765 504.528" stroke="#000000" stroke-width="0.36" fill="none" /><path id="324" transform="matrix(1 0 0 -1 0 841)" d="M64.645 504.528L549.305 504.528" stroke="#000000" stroke-width="0.36" fill="none" /><path id="325" transform="matrix(1 0 0 -1 0 841)" d="M64.645 738.992L549.305 738.992" stroke="#000000" stroke-width="0.36" fill="none" /></g></g></g></svg>