<svg xmlns="http://www.w3.org/2000/svg" xmlns:xlink="http://www.w3.org/1999/xlink" id="body_8" preserveAspectRatio="xMinYMin meet" viewBox="0 0 793 1121"><defs><clipPath id="1"><path id="" clip-rule="evenodd" transform="matrix(1 0 0 1 0 0)" d="M0 841L0 0L0 0L595 0L595 0L595 841L595 841L0 841z" /></clipPath><clipPath id="2"><path id="" clip-rule="evenodd" transform="matrix(1 0 0 1 0 0)" d="M0 0L594.88 0L594.88 0L594.88 841L594.88 841L0 841z" /></clipPath><clipPath id="3"><path id="" clip-rule="evenodd" transform="matrix(1 0 0 1 0 0)" d="M0 0L594.88 0L594.88 0L594.88 841L594.88 841L0 841z" /></clipPath><clipPath id="4"><path id="" clip-rule="evenodd" transform="matrix(1 0 0 1 0 0)" d="M0 0L594.88 0L594.88 0L594.88 841L594.88 841L0 841z" /></clipPath><clipPath id="5"><path id="" clip-rule="evenodd" transform="matrix(1 0 0 1 0 0)" d="M0 0L594.88 0L594.88 0L594.88 841L594.88 841L0 841z" /></clipPath><clipPath id="6"><path id="" clip-rule="evenodd" transform="matrix(1 0 0 1 0 0)" d="M0 0L594.88 0L594.88 0L594.88 841L594.88 841L0 841z" /></clipPath><clipPath id="7"><path id="" clip-rule="evenodd" transform="matrix(1 0 0 1 0 0)" d="M0 0L594.88 0L594.88 0L594.88 841L594.88 841L0 841z" /></clipPath><clipPath id="8"><path id="" clip-rule="evenodd" transform="matrix(1 0 0 1 0 0)" d="M0 0L594.88 0L594.88 0L594.88 841L594.88 841L0 841z" /></clipPath><clipPath id="9"><path id="" clip-rule="evenodd" transform="matrix(1 0 0 1 0 0)" d="M0 0L594.88 0L594.88 0L594.88 841L594.88 841L0 841z" /></clipPath><clipPath id="10"><path id="" clip-rule="evenodd" transform="matrix(1 0 0 1 0 0)" d="M0 0L594.88 0L594.88 0L594.88 841L594.88 841L0 841z" /></clipPath><clipPath id="11"><path id="" clip-rule="evenodd" transform="matrix(1 0 0 1 0 0)" d="M0 0L594.88 0L594.88 0L594.88 841L594.88 841L0 841z" /></clipPath><clipPath id="12"><path id="" clip-rule="evenodd" transform="matrix(1 0 0 1 0 0)" d="M0 0L594.88 0L594.88 0L594.88 841L594.88 841L0 841z" /></clipPath><clipPath id="13"><path id="" clip-rule="evenodd" transform="matrix(1 0 0 1 0 0)" d="M0 0L594.88 0L594.88 0L594.88 841L594.88 841L0 841z" /></clipPath><clipPath id="14"><path id="" clip-rule="evenodd" transform="matrix(1 0 0 1 0 0)" d="M0 0L594.88 0L594.88 0L594.88 841L594.88 841L0 841z" /></clipPath><clipPath id="15"><path id="" clip-rule="evenodd" transform="matrix(1 0 0 1 0 0)" d="M0 0L594.88 0L594.88 0L594.88 841L594.88 841L0 841z" /></clipPath><clipPath id="16"><path id="" clip-rule="evenodd" transform="matrix(1 0 0 1 0 0)" d="M0 0L594.88 0L594.88 0L594.88 841L594.88 841L0 841z" /></clipPath><clipPath id="17"><path id="" clip-rule="evenodd" transform="matrix(1 0 0 1 0 0)" d="M0 0L594.88 0L594.88 0L594.88 841L594.88 841L0 841z" /></clipPath><clipPath id="18"><path id="" clip-rule="evenodd" transform="matrix(1 0 0 1 0 0)" d="M0 0L594.88 0L594.88 0L594.88 841L594.88 841L0 841z" /></clipPath><clipPath id="19"><path id="" clip-rule="evenodd" transform="matrix(1 0 0 1 0 0)" d="M0 0L594.88 0L594.88 0L594.88 841L594.88 841L0 841z" /></clipPath><clipPath id="20"><path id="" clip-rule="evenodd" transform="matrix(1 0 0 1 0 0)" d="M0 0L594.88 0L594.88 0L594.88 841L594.88 841L0 841z" /></clipPath><clipPath id="21"><path id="" clip-rule="evenodd" transform="matrix(1 0 0 1 0 0)" d="M0 0L594.88 0L594.88 0L594.88 841L594.88 841L0 841z" /></clipPath><clipPath id="22"><path id="" clip-rule="evenodd" transform="matrix(1 0 0 1 0 0)" d="M0 0L594.88 0L594.88 0L594.88 841L594.88 841L0 841z" /></clipPath><clipPath id="23"><path id="" clip-rule="evenodd" transform="matrix(1 0 0 1 0 0)" d="M0 0L594.88 0L594.88 0L594.88 841L594.88 841L0 841z" /></clipPath><clipPath id="24"><path id="" clip-rule="evenodd" transform="matrix(1 0 0 1 0 0)" d="M0 0L594.88 0L594.88 0L594.88 841L594.88 841L0 841z" /></clipPath><clipPath id="25"><path id="" clip-rule="evenodd" transform="matrix(1 0 0 1 0 0)" d="M0 0L594.88 0L594.88 0L594.88 841L594.88 841L0 841z" /></clipPath><clipPath id="26"><path id="" clip-rule="evenodd" transform="matrix(1 0 0 1 0 0)" d="M0 0L594.88 0L594.88 0L594.88 841L594.88 841L0 841z" /></clipPath><clipPath id="27"><path id="" clip-rule="evenodd" transform="matrix(1 0 0 1 0 0)" d="M0 0L594.88 0L594.88 0L594.88 841L594.88 841L0 841z" /></clipPath><clipPath id="28"><path id="" clip-rule="evenodd" transform="matrix(1 0 0 1 0 0)" d="M0 0L594.88 0L594.88 0L594.88 841L594.88 841L0 841z" /></clipPath><clipPath id="29"><path id="" clip-rule="evenodd" transform="matrix(1 0 0 1 0 0)" d="M0 0L594.88 0L594.88 0L594.88 841L594.88 841L0 841z" /></clipPath><clipPath id="30"><path id="" clip-rule="evenodd" transform="matrix(1 0 0 1 0 0)" d="M0 0L594.88 0L594.88 0L594.88 841L594.88 841L0 841z" /></clipPath><clipPath id="31"><path id="" clip-rule="evenodd" transform="matrix(1 0 0 1 0 0)" d="M0 0L594.88 0L594.88 0L594.88 841L594.88 841L0 841z" /></clipPath><clipPath id="32"><path id="" clip-rule="evenodd" transform="matrix(1 0 0 1 0 0)" d="M0 0L594.88 0L594.88 0L594.88 841L594.88 841L0 841z" /></clipPath><clipPath id="33"><path id="" clip-rule="evenodd" transform="matrix(1 0 0 1 0 0)" d="M0 0L594.88 0L594.88 0L594.88 841L594.88 841L0 841z" /></clipPath><clipPath id="34"><path id="" clip-rule="evenodd" transform="matrix(1 0 0 1 0 0)" d="M0 0L594.88 0L594.88 0L594.88 841L594.88 841L0 841z" /></clipPath><clipPath id="35"><path id="" clip-rule="evenodd" transform="matrix(1 0 0 1 0 0)" d="M0 0L594.88 0L594.88 0L594.88 841L594.88 841L0 841z" /></clipPath><clipPath id="36"><path id="" clip-rule="evenodd" transform="matrix(1 0 0 1 0 0)" d="M0 0L594.88 0L594.88 0L594.88 841L594.88 841L0 841z" /></clipPath><clipPath id="37"><path id="" clip-rule="evenodd" transform="matrix(1 0 0 1 0 0)" d="M0 0L594.88 0L594.88 0L594.88 841L594.88 841L0 841z" /></clipPath><clipPath id="38"><path id="" clip-rule="evenodd" transform="matrix(1 0 0 1 0 0)" d="M0 0L594.88 0L594.88 0L594.88 841L594.88 841L0 841z" /></clipPath><clipPath id="39"><path id="" clip-rule="evenodd" transform="matrix(1 0 0 1 0 0)" d="M0 0L594.88 0L594.88 0L594.88 841L594.88 841L0 841z" /></clipPath><clipPath id="40"><path id="" clip-rule="evenodd" transform="matrix(1 0 0 1 0 0)" d="M0 0L594.88 0L594.88 0L594.88 841L594.88 841L0 841z" /></clipPath><clipPath id="41"><path id="" clip-rule="evenodd" transform="matrix(1 0 0 1 0 0)" d="M0 0L594.88 0L594.88 0L594.88 841L594.88 841L0 841z" /></clipPath><clipPath id="42"><path id="" clip-rule="evenodd" transform="matrix(1 0 0 1 0 0)" d="M0 0L594.88 0L594.88 0L594.88 841L594.88 841L0 841z" /></clipPath><clipPath id="43"><path id="" clip-rule="evenodd" transform="matrix(1 0 0 1 0 0)" d="M0 0L594.88 0L594.88 0L594.88 841L594.88 841L0 841z" /></clipPath><clipPath id="44"><path id="" clip-rule="evenodd" transform="matrix(1 0 0 1 0 0)" d="M0 0L594.88 0L594.88 0L594.88 841L594.88 841L0 841z" /></clipPath><clipPath id="45"><path id="" clip-rule="evenodd" transform="matrix(1 0 0 1 0 0)" d="M0 0L594.88 0L594.88 0L594.88 841L594.88 841L0 841z" /></clipPath><clipPath id="46"><path id="" clip-rule="evenodd" transform="matrix(1 0 0 1 0 0)" d="M0 0L594.88 0L594.88 0L594.88 841L594.88 841L0 841z" /></clipPath><clipPath id="47"><path id="" clip-rule="evenodd" transform="matrix(1 0 0 1 0 0)" d="M0 0L594.88 0L594.88 0L594.88 841L594.88 841L0 841z" /></clipPath><clipPath id="48"><path id="" clip-rule="evenodd" transform="matrix(1 0 0 1 0 0)" d="M0 0L594.88 0L594.88 0L594.88 841L594.88 841L0 841z" /></clipPath><clipPath id="49"><path id="" clip-rule="evenodd" transform="matrix(1 0 0 1 0 0)" d="M0 0L594.88 0L594.88 0L594.88 841L594.88 841L0 841z" /></clipPath><clipPath id="50"><path id="" clip-rule="evenodd" transform="matrix(1 0 0 1 0 0)" d="M0 0L594.88 0L594.88 0L594.88 841L594.88 841L0 841z" /></clipPath><clipPath id="51"><path id="" clip-rule="evenodd" transform="matrix(1 0 0 1 0 0)" d="M0 0L594.88 0L594.88 0L594.88 841L594.88 841L0 841z" /></clipPath><clipPath id="52"><path id="" clip-rule="evenodd" transform="matrix(1 0 0 1 0 0)" d="M0 0L594.88 0L594.88 0L594.88 841L594.88 841L0 841z" /></clipPath><clipPath id="53"><path id="" clip-rule="evenodd" transform="matrix(1 0 0 1 0 0)" d="M0 0L594.88 0L594.88 0L594.88 841L594.88 841L0 841z" /></clipPath><clipPath id="54"><path id="" clip-rule="evenodd" transform="matrix(1 0 0 1 0 0)" d="M0 0L594.88 0L594.88 0L594.88 841L594.88 841L0 841z" /></clipPath><clipPath id="55"><path id="" clip-rule="evenodd" transform="matrix(1 0 0 1 0 0)" d="M0 0L594.88 0L594.88 0L594.88 841L594.88 841L0 841z" /></clipPath><clipPath id="56"><path id="" clip-rule="evenodd" transform="matrix(1 0 0 1 0 0)" d="M0 0L594.88 0L594.88 0L594.88 841L594.88 841L0 841z" /></clipPath><clipPath id="57"><path id="" clip-rule="evenodd" transform="matrix(1 0 0 1 0 0)" d="M0 0L594.88 0L594.88 0L594.88 841L594.88 841L0 841z" /></clipPath><clipPath id="58"><path id="" clip-rule="evenodd" transform="matrix(1 0 0 1 0 0)" d="M0 0L594.88 0L594.88 0L594.88 841L594.88 841L0 841z" /></clipPath><clipPath id="59"><path id="" clip-rule="evenodd" transform="matrix(1 0 0 1 0 0)" d="M0 0L594.88 0L594.88 0L594.88 841L594.88 841L0 841z" /></clipPath><clipPath id="60"><path id="" clip-rule="evenodd" transform="matrix(1 0 0 1 0 0)" d="M0 0L594.88 0L594.88 0L594.88 841L594.88 841L0 841z" /></clipPath><clipPath id="61"><path id="" clip-rule="evenodd" transform="matrix(1 0 0 1 0 0)" d="M0 0L594.88 0L594.88 0L594.88 841L594.88 841L0 841z" /></clipPath><clipPath id="62"><path id="" clip-rule="evenodd" transform="matrix(1 0 0 1 0 0)" d="M0 0L594.88 0L594.88 0L594.88 841L594.88 841L0 841z" /></clipPath><clipPath id="63"><path id="" clip-rule="evenodd" transform="matrix(1 0 0 1 0 0)" d="M0 0L594.88 0L594.88 0L594.88 841L594.88 841L0 841z" /></clipPath><clipPath id="64"><path id="" clip-rule="evenodd" transform="matrix(1 0 0 1 0 0)" d="M0 0L594.88 0L594.88 0L594.88 841L594.88 841L0 841z" /></clipPath><clipPath id="65"><path id="" clip-rule="evenodd" transform="matrix(1 0 0 1 0 0)" d="M0 0L594.88 0L594.88 0L594.88 841L594.88 841L0 841z" /></clipPath><clipPath id="66"><path id="" clip-rule="evenodd" transform="matrix(1 0 0 1 0 0)" d="M0 0L594.88 0L594.88 0L594.88 841L594.88 841L0 841z" /></clipPath><clipPath id="67"><path id="" clip-rule="evenodd" transform="matrix(1 0 0 1 0 0)" d="M0 0L594.88 0L594.88 0L594.88 841L594.88 841L0 841z" /></clipPath><clipPath id="68"><path id="" clip-rule="evenodd" transform="matrix(1 0 0 1 0 0)" d="M0 0L594.88 0L594.88 0L594.88 841L594.88 841L0 841z" /></clipPath></defs><g transform="matrix(1.333333 0 0 1.333333 0 0)"><g clip-path="url(#1)"><g clip-path="url(#2)"></g><g clip-path="url(#3)"></g><g clip-path="url(#4)"></g><g clip-path="url(#5)"></g><g clip-path="url(#6)"></g><g clip-path="url(#7)"></g><g clip-path="url(#8)"></g><g clip-path="url(#9)"></g><g clip-path="url(#10)"></g><g clip-path="url(#11)"></g><g clip-path="url(#12)"></g><g clip-path="url(#13)"></g><g clip-path="url(#14)"></g><g clip-path="url(#15)"></g><g clip-path="url(#16)"></g><g clip-path="url(#17)"></g><g clip-path="url(#18)"></g><g clip-path="url(#19)"></g><g clip-path="url(#20)"></g><g clip-path="url(#21)"></g><g clip-path="url(#22)"></g><g clip-path="url(#23)"></g><g clip-path="url(#24)"></g><g clip-path="url(#25)"></g><g clip-path="url(#26)"></g><g clip-path="url(#27)"></g><g clip-path="url(#28)"></g><g clip-path="url(#29)"></g><g clip-path="url(#30)"></g><g clip-path="url(#31)"></g><g clip-path="url(#32)"></g><g clip-path="url(#33)"></g><g clip-path="url(#34)"></g><g clip-path="url(#35)"></g><g clip-path="url(#36)"></g><g clip-path="url(#37)"></g><g clip-path="url(#38)"></g><g clip-path="url(#39)"></g><g clip-path="url(#40)"></g><g clip-path="url(#41)"></g><g clip-path="url(#42)"></g><g clip-path="url(#43)"></g><g clip-path="url(#44)"></g><g clip-path="url(#45)"></g><g clip-path="url(#46)"></g><g clip-path="url(#47)"></g><g clip-path="url(#48)"></g><g clip-path="url(#49)"></g><g clip-path="url(#50)"></g><g clip-path="url(#51)"></g><g clip-path="url(#52)"></g><g clip-path="url(#53)"></g><g clip-path="url(#54)"></g><g clip-path="url(#55)"></g><g clip-path="url(#56)"></g><g clip-path="url(#57)"></g><g clip-path="url(#58)"></g><g clip-path="url(#59)"></g><g clip-path="url(#60)"></g><g clip-path="url(#61)"></g><g clip-path="url(#62)"></g><g clip-path="url(#63)"></g><g clip-path="url(#64)"></g><g clip-path="url(#65)"></g><g clip-path="url(#66)"></g><g clip-path="url(#67)"></g><g clip-path="url(#68)"><path id="313" transform="matrix(1 0 0 -1 0 841)" d="M57.809 451.786L57.809 277.976" stroke="#000000" stroke-width="0.36" fill="none" /><path id="314" transform="matrix(1 0 0 -1 0 841)" d="M96.548 451.786L96.548 277.976" stroke="#000000" stroke-width="0.36" fill="none" /><path id="315" transform="matrix(1 0 0 -1 0 841)" d="M172.107 451.786L172.107 277.976" stroke="#000000" stroke-width="0.36" fill="none" /><path id="316" transform="matrix(1 0 0 -1 0 841)" d="M236.393 451.786L236.393 277.976" stroke="#000000" stroke-width="0.36" fill="none" /><path id="317" transform="matrix(1 0 0 -1 0 841)" d="M311.952 451.786L311.952 277.976" stroke="#000000" stroke-width="0.36" fill="none" /><path id="318" transform="matrix(1 0 0 -1 0 841)" d="M483.7 451.786L483.7 277.976" stroke="#000000" stroke-width="0.36" fill="none" /><path id="319" transform="matrix(1 0 0 -1 0 841)" d="M556.501 451.786L556.501 277.976" stroke="#000000" stroke-width="0.36" fill="none" /><path id="320" transform="matrix(1 0 0 -1 0 841)" d="M57.689 451.786L556.741 451.786" stroke="#000000" stroke-width="0.36" fill="none" /><path id="321" transform="matrix(1 0 0 -1 0 841)" d="M57.689 435.963L556.741 435.963" stroke="#000000" stroke-width="0.36" fill="none" /><path id="322" transform="matrix(1 0 0 -1 0 841)" d="M57.689 420.14L556.741 420.14" stroke="#000000" stroke-width="0.36" fill="none" /><path id="323" transform="matrix(1 0 0 -1 0 841)" d="M57.689 404.438L556.741 404.438" stroke="#000000" stroke-width="0.36" fill="none" /><path id="324" transform="matrix(1 0 0 -1 0 841)" d="M57.689 388.615L556.741 388.615" stroke="#000000" stroke-width="0.36" fill="none" /><path id="325" transform="matrix(1 0 0 -1 0 841)" d="M57.689 372.792L556.741 372.792" stroke="#000000" stroke-width="0.36" fill="none" /><path id="326" transform="matrix(1 0 0 -1 0 841)" d="M57.689 356.97L556.741 356.97" stroke="#000000" stroke-width="0.36" fill="none" /><path id="327" transform="matrix(1 0 0 -1 0 841)" d="M57.689 341.147L556.741 341.147" stroke="#000000" stroke-width="0.36" fill="none" /><path id="328" transform="matrix(1 0 0 -1 0 841)" d="M57.689 325.324L556.741 325.324" stroke="#000000" stroke-width="0.36" fill="none" /><path id="329" transform="matrix(1 0 0 -1 0 841)" d="M57.689 309.621L556.741 309.621" stroke="#000000" stroke-width="0.36" fill="none" /><path id="330" transform="matrix(1 0 0 -1 0 841)" d="M57.689 293.799L556.741 293.799" stroke="#000000" stroke-width="0.36" fill="none" /><path id="331" transform="matrix(1 0 0 -1 0 841)" d="M57.689 277.976L556.741 277.976" stroke="#000000" stroke-width="0.36" fill="none" /><path id="332" transform="matrix(1 0 0 -1 0 841)" d="M556.501 451.786L556.501 277.976" stroke="#000000" stroke-width="0.36" fill="none" /><path id="333" transform="matrix(1 0 0 -1 0 841)" d="M57.809 451.786L57.809 277.976" stroke="#000000" stroke-width="0.36" fill="none" /><path id="334" transform="matrix(1 0 0 -1 0 841)" d="M57.689 277.976L556.741 277.976" stroke="#000000" stroke-width="0.36" fill="none" /><path id="335" transform="matrix(1 0 0 -1 0 841)" d="M57.689 451.786L556.741 451.786" stroke="#000000" stroke-width="0.36" fill="none" /></g></g></g></svg>