<svg xmlns="http://www.w3.org/2000/svg" xmlns:xlink="http://www.w3.org/1999/xlink" id="body_3" preserveAspectRatio="xMinYMin meet" viewBox="0 0 793 1121"><defs><clipPath id="1"><path id="" clip-rule="evenodd" transform="matrix(1 0 0 1 0 0)" d="M0 841L0 0L0 0L595 0L595 0L595 841L595 841L0 841z" /></clipPath><clipPath id="2"><path id="" clip-rule="evenodd" transform="matrix(1 0 0 1 0 0)" d="M0 0L594.88 0L594.88 0L594.88 841L594.88 841L0 841z" /></clipPath><clipPath id="3"><path id="" clip-rule="evenodd" transform="matrix(1 0 0 1 0 0)" d="M0 0L594.88 0L594.88 0L594.88 841L594.88 841L0 841z" /></clipPath><clipPath id="4"><path id="" clip-rule="evenodd" transform="matrix(1 0 0 1 0 0)" d="M0 0L594.88 0L594.88 0L594.88 841L594.88 841L0 841z" /></clipPath><clipPath id="5"><path id="" clip-rule="evenodd" transform="matrix(1 0 0 1 0 0)" d="M0 0L594.88 0L594.88 0L594.88 841L594.88 841L0 841z" /></clipPath><clipPath id="6"><path id="" clip-rule="evenodd" transform="matrix(1 0 0 1 0 0)" d="M0 0L594.88 0L594.88 0L594.88 841L594.88 841L0 841z" /></clipPath><clipPath id="7"><path id="" clip-rule="evenodd" transform="matrix(1 0 0 1 0 0)" d="M0 0L594.88 0L594.88 0L594.88 841L594.88 841L0 841z" /></clipPath><clipPath id="8"><path id="" clip-rule="evenodd" transform="matrix(1 0 0 1 0 0)" d="M0 0L594.88 0L594.88 0L594.88 841L594.88 841L0 841z" /></clipPath><clipPath id="9"><path id="" clip-rule="evenodd" transform="matrix(1 0 0 1 0 0)" d="M0 0L594.88 0L594.88 0L594.88 841L594.88 841L0 841z" /></clipPath><clipPath id="10"><path id="" clip-rule="evenodd" transform="matrix(1 0 0 1 0 0)" d="M0 0L594.88 0L594.88 0L594.88 841L594.88 841L0 841z" /></clipPath><clipPath id="11"><path id="" clip-rule="evenodd" transform="matrix(1 0 0 1 0 0)" d="M0 0L594.88 0L594.88 0L594.88 841L594.88 841L0 841z" /></clipPath><clipPath id="12"><path id="" clip-rule="evenodd" transform="matrix(1 0 0 1 0 0)" d="M0 0L594.88 0L594.88 0L594.88 841L594.88 841L0 841z" /></clipPath><clipPath id="13"><path id="" clip-rule="evenodd" transform="matrix(1 0 0 1 0 0)" d="M0 0L594.88 0L594.88 0L594.88 841L594.88 841L0 841z" /></clipPath><clipPath id="14"><path id="" clip-rule="evenodd" transform="matrix(1 0 0 1 0 0)" d="M0 0L594.88 0L594.88 0L594.88 841L594.88 841L0 841z" /></clipPath><clipPath id="15"><path id="" clip-rule="evenodd" transform="matrix(1 0 0 1 0 0)" d="M0 0L594.88 0L594.88 0L594.88 841L594.88 841L0 841z" /></clipPath><clipPath id="16"><path id="" clip-rule="evenodd" transform="matrix(1 0 0 1 0 0)" d="M0 0L594.88 0L594.88 0L594.88 841L594.88 841L0 841z" /></clipPath><clipPath id="17"><path id="" clip-rule="evenodd" transform="matrix(1 0 0 1 0 0)" d="M0 0L594.88 0L594.88 0L594.88 841L594.88 841L0 841z" /></clipPath><clipPath id="18"><path id="" clip-rule="evenodd" transform="matrix(1 0 0 1 0 0)" d="M0 0L594.88 0L594.88 0L594.88 841L594.88 841L0 841z" /></clipPath><clipPath id="19"><path id="" clip-rule="evenodd" transform="matrix(1 0 0 1 0 0)" d="M0 0L594.88 0L594.88 0L594.88 841L594.88 841L0 841z" /></clipPath><clipPath id="20"><path id="" clip-rule="evenodd" transform="matrix(1 0 0 1 0 0)" d="M0 0L594.88 0L594.88 0L594.88 841L594.88 841L0 841z" /></clipPath></defs><g transform="matrix(1.333333 0 0 1.333333 0 0)"><g clip-path="url(#1)"><g clip-path="url(#2)"></g><g clip-path="url(#3)"></g><g clip-path="url(#4)"></g><g clip-path="url(#5)"></g><g clip-path="url(#6)"></g><g clip-path="url(#7)"></g><g clip-path="url(#8)"></g><g clip-path="url(#9)"></g><g clip-path="url(#10)"></g><g clip-path="url(#11)"></g><g clip-path="url(#12)"></g><g clip-path="url(#13)"></g><g clip-path="url(#14)"></g><g clip-path="url(#15)"></g><g clip-path="url(#16)"></g><g clip-path="url(#17)"></g><g clip-path="url(#18)"></g><g clip-path="url(#19)"></g><g clip-path="url(#20)"><path id="239" transform="matrix(1 0 0 -1 0 841)" d="M71.721 489.065L71.721 323.406" stroke="#000000" stroke-width="0.36" fill="none" /><path id="240" transform="matrix(1 0 0 -1 0 841)" d="M113.819 489.065L113.819 323.406" stroke="#000000" stroke-width="0.36" fill="none" /><path id="241" transform="matrix(1 0 0 -1 0 841)" d="M495.094 489.065L495.094 323.406" stroke="#000000" stroke-width="0.36" fill="none" /><path id="242" transform="matrix(1 0 0 -1 0 841)" d="M561.658 489.065L561.658 323.406" stroke="#000000" stroke-width="0.36" fill="none" /><path id="243" transform="matrix(1 0 0 -1 0 841)" d="M71.601 489.065L561.898 489.065" stroke="#000000" stroke-width="0.36" fill="none" /><path id="244" transform="matrix(1 0 0 -1 0 841)" d="M71.601 472.163L561.898 472.163" stroke="#000000" stroke-width="0.36" fill="none" /><path id="245" transform="matrix(1 0 0 -1 0 841)" d="M71.601 439.439L561.898 439.439" stroke="#000000" stroke-width="0.36" fill="none" /><path id="246" transform="matrix(1 0 0 -1 0 841)" d="M71.601 406.595L561.898 406.595" stroke="#000000" stroke-width="0.36" fill="none" /><path id="247" transform="matrix(1 0 0 -1 0 841)" d="M71.601 388.974L561.898 388.974" stroke="#000000" stroke-width="0.36" fill="none" /><path id="248" transform="matrix(1 0 0 -1 0 841)" d="M71.601 356.25L561.898 356.25" stroke="#000000" stroke-width="0.36" fill="none" /><path id="249" transform="matrix(1 0 0 -1 0 841)" d="M71.601 323.406L561.898 323.406" stroke="#000000" stroke-width="0.36" fill="none" /><path id="250" transform="matrix(1 0 0 -1 0 841)" d="M561.658 489.065L561.658 323.406" stroke="#000000" stroke-width="0.36" fill="none" /><path id="251" transform="matrix(1 0 0 -1 0 841)" d="M71.721 489.065L71.721 323.406" stroke="#000000" stroke-width="0.36" fill="none" /><path id="252" transform="matrix(1 0 0 -1 0 841)" d="M71.601 323.406L561.898 323.406" stroke="#000000" stroke-width="0.36" fill="none" /><path id="253" transform="matrix(1 0 0 -1 0 841)" d="M71.601 489.065L561.898 489.065" stroke="#000000" stroke-width="0.36" fill="none" /></g></g></g></svg>