<svg xmlns="http://www.w3.org/2000/svg" xmlns:xlink="http://www.w3.org/1999/xlink" id="body_2" preserveAspectRatio="xMinYMin meet" viewBox="0 0 793 1121"><defs><clipPath id="1"><path id="" clip-rule="evenodd" transform="matrix(1 0 0 1 0 0)" d="M0 841L0 0L0 0L595 0L595 0L595 841L595 841L0 841z" /></clipPath><clipPath id="2"><path id="" clip-rule="evenodd" transform="matrix(1 0 0 1 0 0)" d="M0 0L594.88 0L594.88 0L594.88 841L594.88 841L0 841z" /></clipPath><clipPath id="3"><path id="" clip-rule="evenodd" transform="matrix(1 0 0 1 0 0)" d="M0 0L594.88 0L594.88 0L594.88 841L594.88 841L0 841z" /></clipPath><clipPath id="4"><path id="" clip-rule="evenodd" transform="matrix(1 0 0 1 0 0)" d="M0 0L594.88 0L594.88 0L594.88 841L594.88 841L0 841z" /></clipPath><clipPath id="5"><path id="" clip-rule="evenodd" transform="matrix(1 0 0 1 0 0)" d="M0 0L594.88 0L594.88 0L594.88 841L594.88 841L0 841z" /></clipPath><clipPath id="6"><path id="" clip-rule="evenodd" transform="matrix(1 0 0 1 0 0)" d="M0 0L594.88 0L594.88 0L594.88 841L594.88 841L0 841z" /></clipPath><clipPath id="7"><path id="" clip-rule="evenodd" transform="matrix(1 0 0 1 0 0)" d="M0 0L594.88 0L594.88 0L594.88 841L594.88 841L0 841z" /></clipPath><clipPath id="8"><path id="" clip-rule="evenodd" transform="matrix(1 0 0 1 0 0)" d="M0 0L594.88 0L594.88 0L594.88 841L594.88 841L0 841z" /></clipPath><clipPath id="9"><path id="" clip-rule="evenodd" transform="matrix(1 0 0 1 0 0)" d="M0 0L594.88 0L594.88 0L594.88 841L594.88 841L0 841z" /></clipPath><clipPath id="10"><path id="" clip-rule="evenodd" transform="matrix(1 0 0 1 0 0)" d="M0 0L594.88 0L594.88 0L594.88 841L594.88 841L0 841z" /></clipPath><clipPath id="11"><path id="" clip-rule="evenodd" transform="matrix(1 0 0 1 0 0)" d="M0 0L594.88 0L594.88 0L594.88 841L594.88 841L0 841z" /></clipPath><clipPath id="12"><path id="" clip-rule="evenodd" transform="matrix(1 0 0 1 0 0)" d="M0 0L594.88 0L594.88 0L594.88 841L594.88 841L0 841z" /></clipPath><clipPath id="13"><path id="" clip-rule="evenodd" transform="matrix(1 0 0 1 0 0)" d="M0 0L594.88 0L594.88 0L594.88 841L594.88 841L0 841z" /></clipPath><clipPath id="14"><path id="" clip-rule="evenodd" transform="matrix(1 0 0 1 0 0)" d="M0 0L594.88 0L594.88 0L594.88 841L594.88 841L0 841z" /></clipPath><clipPath id="15"><path id="" clip-rule="evenodd" transform="matrix(1 0 0 1 0 0)" d="M0 0L594.88 0L594.88 0L594.88 841L594.88 841L0 841z" /></clipPath><clipPath id="16"><path id="" clip-rule="evenodd" transform="matrix(1 0 0 1 0 0)" d="M0 0L594.88 0L594.88 0L594.88 841L594.88 841L0 841z" /></clipPath><clipPath id="17"><path id="" clip-rule="evenodd" transform="matrix(1 0 0 1 0 0)" d="M0 0L594.88 0L594.88 0L594.88 841L594.88 841L0 841z" /></clipPath><clipPath id="18"><path id="" clip-rule="evenodd" transform="matrix(1 0 0 1 0 0)" d="M0 0L594.88 0L594.88 0L594.88 841L594.88 841L0 841z" /></clipPath></defs><g transform="matrix(1.333333 0 0 1.333333 0 0)"><g clip-path="url(#1)"><g clip-path="url(#2)"><path id="1" transform="matrix(1 0 0 -1 0 841)" d="M43.896 232.306L43.896 213.007L43.896 213.007L111.06 213.007L111.06 213.007L111.06 232.306L111.06 232.306L43.896 232.306z" stroke="none" fill="#FFE7D8" fill-rule="evenodd" /></g><g clip-path="url(#3)"><path id="4" transform="matrix(1 0 0 -1 0 841)" d="M111.06 232.306L111.06 213.007L111.06 213.007L209.767 213.007L209.767 213.007L209.767 232.306L209.767 232.306L111.06 232.306z" stroke="none" fill="#FFE7D8" fill-rule="evenodd" /></g><g clip-path="url(#4)"><path id="11" transform="matrix(1 0 0 -1 0 841)" d="M209.767 232.306L209.767 213.007L209.767 213.007L302.717 213.007L302.717 213.007L302.717 232.306L302.717 232.306L209.767 232.306z" stroke="none" fill="#FFE7D8" fill-rule="evenodd" /></g><g clip-path="url(#5)"><path id="18" transform="matrix(1 0 0 -1 0 841)" d="M302.717 232.306L302.717 213.007L302.717 213.007L418.455 213.007L418.455 213.007L418.455 232.306L418.455 232.306L302.717 232.306z" stroke="none" fill="#FFE7D8" fill-rule="evenodd" /></g><g clip-path="url(#6)"><path id="25" transform="matrix(1 0 0 -1 0 841)" d="M418.455 232.306L418.455 213.007L418.455 213.007L542.588 213.007L542.588 213.007L542.588 232.306L542.588 232.306L418.455 232.306z" stroke="none" fill="#FFE7D8" fill-rule="evenodd" /></g><g clip-path="url(#7)"><path id="32" transform="matrix(1 0 0 -1 0 841)" d="M43.896 213.007L43.896 174.409L43.896 174.409L80.237 174.409L80.237 174.409L80.237 213.007L80.237 213.007L43.896 213.007z" stroke="none" fill="#FFE7D8" fill-rule="evenodd" /></g><g clip-path="url(#8)"></g><g clip-path="url(#9)"></g><g clip-path="url(#10)"></g><g clip-path="url(#11)"></g><g clip-path="url(#12)"></g><g clip-path="url(#13)"></g><g clip-path="url(#14)"></g><g clip-path="url(#15)"></g><g clip-path="url(#16)"></g><g clip-path="url(#17)"></g><g clip-path="url(#18)"><path id="78" transform="matrix(1 0 0 -1 0 841)" d="M43.896 232.306L43.896 174.409" stroke="#000000" stroke-width="0.36" fill="none" /><path id="79" transform="matrix(1 0 0 -1 0 841)" d="M80.237 213.007L80.237 174.409" stroke="#000000" stroke-width="0.36" fill="none" /><path id="80" transform="matrix(1 0 0 -1 0 841)" d="M111.06 232.306L111.06 174.409" stroke="#000000" stroke-width="0.36" fill="none" /><path id="81" transform="matrix(1 0 0 -1 0 841)" d="M209.767 232.306L209.767 174.409" stroke="#000000" stroke-width="0.36" fill="none" /><path id="82" transform="matrix(1 0 0 -1 0 841)" d="M302.717 232.306L302.717 174.409" stroke="#000000" stroke-width="0.36" fill="none" /><path id="83" transform="matrix(1 0 0 -1 0 841)" d="M418.455 232.306L418.455 174.409" stroke="#000000" stroke-width="0.36" fill="none" /><path id="84" transform="matrix(1 0 0 -1 0 841)" d="M542.588 232.306L542.588 174.409" stroke="#000000" stroke-width="0.36" fill="none" /><path id="85" transform="matrix(1 0 0 -1 0 841)" d="M43.776 232.306L542.828 232.306" stroke="#000000" stroke-width="0.36" fill="none" /><path id="86" transform="matrix(1 0 0 -1 0 841)" d="M43.776 213.007L542.828 213.007" stroke="#000000" stroke-width="0.72" fill="none" /><path id="87" transform="matrix(1 0 0 -1 0 841)" d="M80.117 193.708L542.828 193.708" stroke="#000000" stroke-width="0.36" fill="none" /><path id="88" transform="matrix(1 0 0 -1 0 841)" d="M43.776 174.409L542.828 174.409" stroke="#000000" stroke-width="0.72" fill="none" /><path id="89" transform="matrix(1 0 0 -1 0 841)" d="M542.588 232.306L542.588 174.409" stroke="#000000" stroke-width="0.36" fill="none" /><path id="90" transform="matrix(1 0 0 -1 0 841)" d="M43.896 232.306L43.896 174.409" stroke="#000000" stroke-width="0.36" fill="none" /><path id="91" transform="matrix(1 0 0 -1 0 841)" d="M43.776 174.409L542.828 174.409" stroke="#000000" stroke-width="0.72" fill="none" /><path id="92" transform="matrix(1 0 0 -1 0 841)" d="M43.776 232.306L542.828 232.306" stroke="#000000" stroke-width="0.36" fill="none" /></g></g></g></svg>