<svg xmlns="http://www.w3.org/2000/svg" xmlns:xlink="http://www.w3.org/1999/xlink" id="body_6" preserveAspectRatio="xMinYMin meet" viewBox="0 0 793 1121"><defs><clipPath id="1"><path id="" clip-rule="evenodd" transform="matrix(1 0 0 1 0 0)" d="M0 841L0 0L0 0L595 0L595 0L595 841L595 841L0 841z" /></clipPath><clipPath id="2"><path id="" clip-rule="evenodd" transform="matrix(1 0 0 1 0 0)" d="M0 0L594.88 0L594.88 0L594.88 841L594.88 841L0 841z" /></clipPath><clipPath id="3"><path id="" clip-rule="evenodd" transform="matrix(1 0 0 1 0 0)" d="M0 0L594.88 0L594.88 0L594.88 841L594.88 841L0 841z" /></clipPath><clipPath id="4"><path id="" clip-rule="evenodd" transform="matrix(1 0 0 1 0 0)" d="M0 0L594.88 0L594.88 0L594.88 841L594.88 841L0 841z" /></clipPath><clipPath id="5"><path id="" clip-rule="evenodd" transform="matrix(1 0 0 1 0 0)" d="M0 0L594.88 0L594.88 0L594.88 841L594.88 841L0 841z" /></clipPath><clipPath id="6"><path id="" clip-rule="evenodd" transform="matrix(1 0 0 1 0 0)" d="M0 0L594.88 0L594.88 0L594.88 841L594.88 841L0 841z" /></clipPath><clipPath id="7"><path id="" clip-rule="evenodd" transform="matrix(1 0 0 1 0 0)" d="M0 0L594.88 0L594.88 0L594.88 841L594.88 841L0 841z" /></clipPath><clipPath id="8"><path id="" clip-rule="evenodd" transform="matrix(1 0 0 1 0 0)" d="M0 0L594.88 0L594.88 0L594.88 841L594.88 841L0 841z" /></clipPath><clipPath id="9"><path id="" clip-rule="evenodd" transform="matrix(1 0 0 1 0 0)" d="M0 0L594.88 0L594.88 0L594.88 841L594.88 841L0 841z" /></clipPath><clipPath id="10"><path id="" clip-rule="evenodd" transform="matrix(1 0 0 1 0 0)" d="M0 0L594.88 0L594.88 0L594.88 841L594.88 841L0 841z" /></clipPath><clipPath id="11"><path id="" clip-rule="evenodd" transform="matrix(1 0 0 1 0 0)" d="M0 0L594.88 0L594.88 0L594.88 841L594.88 841L0 841z" /></clipPath><clipPath id="12"><path id="" clip-rule="evenodd" transform="matrix(1 0 0 1 0 0)" d="M0 0L594.88 0L594.88 0L594.88 841L594.88 841L0 841z" /></clipPath><clipPath id="13"><path id="" clip-rule="evenodd" transform="matrix(1 0 0 1 0 0)" d="M0 0L594.88 0L594.88 0L594.88 841L594.88 841L0 841z" /></clipPath><clipPath id="14"><path id="" clip-rule="evenodd" transform="matrix(1 0 0 1 0 0)" d="M0 0L594.88 0L594.88 0L594.88 841L594.88 841L0 841z" /></clipPath><clipPath id="15"><path id="" clip-rule="evenodd" transform="matrix(1 0 0 1 0 0)" d="M0 0L594.88 0L594.88 0L594.88 841L594.88 841L0 841z" /></clipPath><clipPath id="16"><path id="" clip-rule="evenodd" transform="matrix(1 0 0 1 0 0)" d="M0 0L594.88 0L594.88 0L594.88 841L594.88 841L0 841z" /></clipPath><clipPath id="17"><path id="" clip-rule="evenodd" transform="matrix(1 0 0 1 0 0)" d="M0 0L594.88 0L594.88 0L594.88 841L594.88 841L0 841z" /></clipPath><clipPath id="18"><path id="" clip-rule="evenodd" transform="matrix(1 0 0 1 0 0)" d="M0 0L594.88 0L594.88 0L594.88 841L594.88 841L0 841z" /></clipPath><clipPath id="19"><path id="" clip-rule="evenodd" transform="matrix(1 0 0 1 0 0)" d="M0 0L594.88 0L594.88 0L594.88 841L594.88 841L0 841z" /></clipPath></defs><g transform="matrix(1.333333 0 0 1.333333 0 0)"><g clip-path="url(#1)"><g clip-path="url(#2)"><path id="1" transform="matrix(1 0 0 -1 0 841)" d="M45.336 738.992L45.336 717.775L45.336 717.775L118.976 717.775L118.976 717.775L118.976 738.992L118.976 738.992L45.336 738.992z" stroke="none" fill="#FFF7CC" fill-rule="evenodd" /></g><g clip-path="url(#3)"><path id="4" transform="matrix(1 0 0 -1 0 841)" d="M118.976 738.992L118.976 717.775L118.976 717.775L218.163 717.775L218.163 717.775L218.163 738.992L218.163 738.992L118.976 738.992z" stroke="none" fill="#FFF7CC" fill-rule="evenodd" /></g><g clip-path="url(#4)"><path id="7" transform="matrix(1 0 0 -1 0 841)" d="M218.163 738.992L218.163 717.775L218.163 717.775L543.788 717.775L543.788 717.775L543.788 738.992L543.788 738.992L218.163 738.992z" stroke="none" fill="#FFF7CC" fill-rule="evenodd" /></g><g clip-path="url(#5)"></g><g clip-path="url(#6)"></g><g clip-path="url(#7)"></g><g clip-path="url(#8)"></g><g clip-path="url(#9)"></g><g clip-path="url(#10)"></g><g clip-path="url(#11)"></g><g clip-path="url(#12)"></g><g clip-path="url(#13)"></g><g clip-path="url(#14)"></g><g clip-path="url(#15)"></g><g clip-path="url(#16)"></g><g clip-path="url(#17)"></g><g clip-path="url(#18)"></g><g clip-path="url(#19)"><path id="345" transform="matrix(1 0 0 -1 0 841)" d="M45.336 738.992L45.336 449.988" stroke="#000000" stroke-width="0.36" fill="none" /><path id="346" transform="matrix(1 0 0 -1 0 841)" d="M118.976 738.992L118.976 449.988" stroke="#000000" stroke-width="0.36" fill="none" /><path id="347" transform="matrix(1 0 0 -1 0 841)" d="M218.163 738.992L218.163 449.988" stroke="#000000" stroke-width="0.36" fill="none" /><path id="348" transform="matrix(1 0 0 -1 0 841)" d="M543.788 738.992L543.788 449.988" stroke="#000000" stroke-width="0.36" fill="none" /><path id="349" transform="matrix(1 0 0 -1 0 841)" d="M45.216 738.992L544.027 738.992" stroke="#000000" stroke-width="0.36" fill="none" /><path id="350" transform="matrix(1 0 0 -1 0 841)" d="M45.216 717.775L544.027 717.775" stroke="#000000" stroke-width="0.36" fill="none" /><path id="351" transform="matrix(1 0 0 -1 0 841)" d="M45.216 645.494L544.027 645.494" stroke="#000000" stroke-width="0.36" fill="none" /><path id="352" transform="matrix(1 0 0 -1 0 841)" d="M45.216 573.333L544.027 573.333" stroke="#000000" stroke-width="0.36" fill="none" /><path id="353" transform="matrix(1 0 0 -1 0 841)" d="M45.216 520.83L544.027 520.83" stroke="#000000" stroke-width="0.36" fill="none" /><path id="354" transform="matrix(1 0 0 -1 0 841)" d="M118.856 485.469L544.027 485.469" stroke="#000000" stroke-width="0.36" fill="none" /><path id="355" transform="matrix(1 0 0 -1 0 841)" d="M45.216 449.988L544.027 449.988" stroke="#000000" stroke-width="0.36" fill="none" /><path id="356" transform="matrix(1 0 0 -1 0 841)" d="M543.788 738.992L543.788 449.988" stroke="#000000" stroke-width="0.36" fill="none" /><path id="357" transform="matrix(1 0 0 -1 0 841)" d="M45.336 738.992L45.336 449.988" stroke="#000000" stroke-width="0.36" fill="none" /><path id="358" transform="matrix(1 0 0 -1 0 841)" d="M45.216 449.988L544.027 449.988" stroke="#000000" stroke-width="0.36" fill="none" /><path id="359" transform="matrix(1 0 0 -1 0 841)" d="M45.216 738.992L544.027 738.992" stroke="#000000" stroke-width="0.36" fill="none" /></g></g></g></svg>